<svg width="290" height="289" viewBox="0 0 290 289" fill="none" xmlns="http://www.w3.org/2000/svg">
<path d="M284.74 53.19C284.109 49.68 279.151 41.49 276.087 39.78C273.022 38.07 263.288 36.45 261.485 34.83C257.159 30.96 254.815 23.13 260.584 22.86C265.992 22.68 270.499 17.82 270.679 15.84C270.859 13.86 272.572 9 261.485 0C264.64 7.2 265.271 11.97 263.288 16.56C261.305 21.15 247.695 22.5 250.128 26.82C251.3 28.8 250.309 38.25 252.021 39.78C256.798 44.37 266.623 47.07 266.533 48.96C266.533 50.85 264.099 59.49 260.674 59.58C257.249 59.67 254.725 57.33 254.365 55.44C254.004 53.46 254.815 50.4 258.15 49.77C255.356 45.72 246.884 48.42 246.163 50.58C245.442 52.74 245.982 61.74 249.768 64.89C253.554 68.04 257.7 67.05 262.567 67.5C267.344 67.95 269.778 71.28 274.014 69.03C278.34 66.78 285.641 57.96 284.74 53.19Z" fill="#4E4E4E"/>
<g opacity="0.48">
<path d="M284.74 53.19C284.109 49.68 279.151 41.49 276.087 39.78C275.907 39.69 275.636 39.6 275.456 39.42C275.636 40.23 275.997 41.04 276.538 41.67C277.259 42.57 278.25 43.38 278.971 44.28C280.864 46.62 281.495 49.77 280.954 52.74C280.413 55.71 278.971 58.41 276.988 60.66C275.276 62.73 272.842 64.62 270.228 64.35C273.113 60.39 274.104 55.08 272.752 50.31C271.851 52.83 270.949 55.35 269.507 57.69C268.065 59.94 266.172 62.01 263.739 63.09C259.502 64.98 254.094 63.54 250.94 60.03C248.326 57.15 247.244 53.01 247.695 49.14C246.974 49.59 246.523 50.04 246.343 50.49C245.622 52.65 246.163 61.65 249.948 64.8C253.734 67.95 257.88 66.96 262.747 67.41C267.524 67.86 269.958 71.19 274.194 68.94C278.34 66.78 285.641 57.96 284.74 53.19Z" fill="#131313"/>
<path d="M252.021 39.78C254.185 41.85 257.339 43.56 260.133 44.91C258.962 44.01 257.88 43.02 256.798 42.03C255.356 40.68 254.004 39.24 253.554 37.35C252.923 35.1 253.914 32.58 253.373 30.24C253.193 29.25 252.652 28.35 252.382 27.36C252.112 26.37 252.021 25.29 252.652 24.39C253.464 23.22 254.996 23.04 256.258 22.68C258.06 22.05 259.593 20.88 260.584 19.26C260.674 19.17 260.674 19.08 260.674 18.99C256.168 21.69 248.236 23.31 250.129 26.73C251.3 28.8 250.399 38.25 252.021 39.78Z" fill="#84529C"/>
</g>
<path d="M11.3653 122.4C11.9962 119.34 16.4128 112.05 19.1168 110.52C21.9109 108.99 28.2202 107.01 29.8426 105.57C33.6282 102.15 35.8816 96.39 30.6538 96.21C25.7866 96.03 24.1642 91.17 23.984 89.37C23.8037 87.66 22.4517 81 32.1861 75.33C29.392 81.72 28.761 85.86 30.5637 89.91C32.3664 93.96 44.5344 95.22 42.281 99C41.2896 100.71 42.1008 109.08 40.6586 110.43C37.7744 113.13 32.9072 115.11 30.0229 116.64C28.5808 117.36 28.761 120.6 28.761 121.14C28.761 122.85 29.9328 127.89 32.9973 127.98C36.0618 128.07 38.3152 126 38.5856 124.29C38.856 122.58 38.225 119.88 35.2506 119.25C37.7744 115.74 45.2554 118.08 45.8864 119.97C46.5173 121.86 45.9765 129.78 42.6416 132.57C39.3066 135.36 35.6112 134.46 31.1946 134.91C26.8682 135.36 24.7952 138.24 20.9194 136.26C17.0437 134.37 10.5541 126.63 11.3653 122.4Z" fill="#4E4E4E"/>
<g opacity="0.48">
<path d="M11.3653 122.4C11.9963 119.34 16.4128 112.05 19.1168 110.52C19.2971 110.43 19.4773 110.34 19.7477 110.25C19.6576 110.97 19.2069 111.6 18.7563 112.23C18.1253 113.04 17.224 113.76 16.5931 114.57C14.8805 116.64 14.3397 119.43 14.7904 122.04C15.2411 124.65 16.5931 126.99 18.3056 129.06C19.8379 130.86 22.0011 132.57 24.3445 132.39C21.7307 128.88 20.9195 124.2 22.0912 119.97C22.9024 122.22 23.7136 124.47 24.9755 126.45C26.2373 128.43 27.9499 130.32 30.1131 131.22C33.8987 132.93 38.7659 131.58 41.56 128.52C43.9035 125.91 44.8048 122.31 44.5344 118.89C45.1653 119.25 45.616 119.7 45.7061 120.06C46.3371 121.95 45.7963 129.87 42.4613 132.66C39.1264 135.45 35.4309 134.55 31.0144 135C26.688 135.45 24.6149 138.33 20.7392 136.35C17.0437 134.37 10.5541 126.63 11.3653 122.4Z" fill="#131313"/>
<path d="M40.5686 110.61C38.6758 112.41 35.8816 113.94 33.3579 115.11C34.3494 114.3 35.3408 113.49 36.3323 112.59C37.5942 111.42 38.856 110.16 39.2166 108.45C39.7574 106.38 38.9462 104.22 39.3968 102.24C39.5771 101.34 40.0278 100.53 40.2982 99.72C40.5686 98.82 40.5686 97.83 40.1179 97.11C39.3968 96.12 38.0448 95.94 36.8731 95.58C35.2507 95.04 33.8987 93.96 32.9974 92.52C32.9974 92.43 32.9072 92.34 32.9072 92.34C36.8731 94.77 43.9936 96.21 42.2811 99.18C41.1995 100.89 42.0107 109.17 40.5686 110.61Z" fill="#84529C"/>
</g>
<path d="M9.11196 254.25C9.11196 254.25 9.47249 252.27 8.84155 251.19" stroke="#DE0A0A" stroke-width="0.6294" stroke-miterlimit="10" stroke-linecap="round" stroke-linejoin="round"/>
<path d="M8.57113 254.52C8.57113 254.52 8.30073 252.18 6.94873 251.91" stroke="white" stroke-width="0.6294" stroke-miterlimit="10" stroke-linecap="round" stroke-linejoin="round"/>
<path d="M7.85012 254.52C7.85012 254.52 7.21919 252.54 5.86719 252.72" stroke="#0032D0" stroke-width="0.6294" stroke-miterlimit="10" stroke-linecap="round" stroke-linejoin="round"/>
<path d="M10.1035 254.7C10.1035 254.7 9.92324 252.18 11.1851 251.46" stroke="#D30000" stroke-width="0.6294" stroke-miterlimit="10" stroke-linecap="round" stroke-linejoin="round"/>
<path d="M10.6442 253.44L7.12903 254.25C7.30929 254.79 10.5541 268.2 22.4517 274.77C30.2032 279.09 39.7573 279.36 50.8437 275.67C83.7424 264.51 124.212 273.69 124.663 273.78L125.474 270.27C123.762 269.91 83.6522 260.82 49.7621 272.25C39.7573 275.67 31.1946 275.4 24.3445 271.62C13.7989 265.86 10.6442 253.53 10.6442 253.44Z" fill="#2B232D"/>
<path d="M7.12901 254.25C7.12901 254.25 7.12901 253.8 6.67834 253.53C7.57968 253.71 7.57968 253.89 7.57968 253.89L7.94022 252.81L8.30075 253.71C8.30075 253.71 9.02181 252.45 9.83301 252.18C9.74288 252.54 9.83301 253.35 9.83301 253.35L11.0949 252.36C11.0949 252.36 10.5541 252.63 10.6442 253.53C10.6442 254.43 10.2837 254.79 10.0133 254.88C9.74289 254.97 8.39088 255.15 8.30075 255.15C8.21061 254.97 7.12901 254.25 7.12901 254.25Z" fill="#2B232D"/>
<path opacity="0.5" d="M51.7451 274.68C40.7488 278.37 31.1947 278.1 23.4432 273.78C13.9792 268.56 9.92323 258.84 8.66136 254.97C8.57123 254.52 8.39096 254.25 8.39096 253.98C8.30082 253.62 8.21069 253.35 8.21069 253.35C8.21069 253.35 8.21068 253.17 8.03042 252.9L7.76003 253.89C7.76003 253.89 7.76002 253.8 7.57975 253.8C7.48962 253.71 7.21922 253.62 6.76855 253.53C7.21922 253.89 7.21922 254.25 7.21922 254.25C7.39949 254.79 10.6443 268.2 22.5419 274.77C30.2934 279.09 39.8475 279.36 50.9339 275.67C83.8326 264.51 124.302 273.69 124.753 273.78L125.023 272.7C119.435 271.44 82.3003 264.33 51.7451 274.68Z" fill="#140716"/>
<path d="M1 245.79C1 245.79 3.25332 246.33 4.87572 248.94" stroke="white" stroke-width="0.6294" stroke-miterlimit="10" stroke-linecap="round" stroke-linejoin="round"/>
<path d="M5.7771 243.63C5.7771 243.63 5.77711 247.14 6.76857 248.58" stroke="white" stroke-width="0.6294" stroke-miterlimit="10" stroke-linecap="round" stroke-linejoin="round"/>
<path d="M10.7344 243.72C10.7344 243.72 8.57117 245.97 8.57117 248.4" stroke="white" stroke-width="0.6294" stroke-miterlimit="10" stroke-linecap="round" stroke-linejoin="round"/>
<path d="M236.789 275.49V271.89C260.674 271.62 277.799 264.87 283.748 253.53C287.263 246.78 286.452 238.77 281.495 231.48C269.868 214.38 241.836 229.41 241.566 229.59L239.853 226.44C241.115 225.72 271.039 209.7 284.469 229.41C290.238 237.78 291.139 247.23 286.993 255.15C283.117 262.53 271.4 275.04 236.789 275.49Z" fill="#2B232D"/>
<g opacity="0.5">
<path d="M285.01 258.3C279.692 265.68 266.893 275.13 236.789 275.49L236.699 271.89C237.059 271.89 237.42 271.89 237.78 271.89V274.14C266.172 273.78 279.061 265.41 285.01 258.3Z" fill="#140716"/>
<path d="M241.566 229.59L239.853 226.44C240.034 226.35 240.484 226.08 241.295 225.72L242.647 228.24C242.918 228.06 270.949 213.03 282.576 230.13C287.534 237.42 288.345 245.43 284.83 252.18C284.109 253.62 283.207 254.97 282.126 256.23C282.757 255.33 283.298 254.43 283.748 253.53C287.263 246.78 286.452 238.77 281.495 231.48C269.868 214.38 241.836 229.41 241.566 229.59Z" fill="#140716"/>
</g>
<path d="M199.834 187.65C197.761 196.83 185.683 199.8 150.531 199.26C115.379 199.8 103.301 196.83 101.318 187.65C99.2453 175.86 104.293 162.81 112.044 148.41C114.388 144 116.281 139.5 117.723 135.27C118.894 131.85 119.706 128.61 120.427 125.73C120.877 123.93 121.148 122.22 121.418 120.69C121.598 119.61 121.779 118.62 121.869 117.81C121.869 117.63 121.959 117.45 121.959 117.18C122.049 116.73 122.049 116.28 122.139 115.92C122.139 115.56 122.229 115.2 122.229 114.84C122.41 113.22 122.5 112.32 122.5 112.32L126.556 112.23L128.358 112.14L132.505 111.96L146.836 111.42C146.836 111.24 146.836 111.15 146.836 111.15L150.621 111.33L154.407 111.15C154.407 111.15 154.407 111.24 154.407 111.42L175.228 112.14L177.751 112.23H178.653C178.653 112.23 178.653 112.41 178.743 112.77C178.743 112.95 178.743 113.13 178.833 113.4C178.833 113.85 178.923 114.57 179.013 115.29C179.013 115.65 179.103 115.92 179.103 116.28C179.194 117.36 179.374 118.62 179.644 120.15C179.734 120.6 179.825 121.14 179.915 121.68C180.095 122.76 180.275 123.93 180.455 125.1C180.996 127.98 181.627 131.22 182.438 134.73C182.438 134.82 182.529 135 182.529 135.09C182.709 135.72 182.889 136.35 182.979 137.07C183.881 140.67 184.962 144.45 186.224 148.32C190.821 162.09 201.817 176.31 199.834 187.65Z" fill="#4E4E4E"/>
<path d="M99.3355 66.42C97.8033 62.55 97.3526 58.14 96.6315 51.3C95.6401 41.22 95.0992 32.94 94.6486 27.81C94.0176 21.24 97.7131 22.5 100.237 23.58C104.834 25.47 111.413 29.88 114.748 32.31C119.976 36.09 128.088 46.62 127.908 51.57C122.77 57.96 113.396 64.62 99.3355 66.42Z" fill="#4E4E4E"/>
<path opacity="0.5" d="M127.908 51.48C127.637 51.75 127.367 52.11 127.097 52.38C125.384 46.98 118.804 38.88 114.388 35.64C111.053 33.21 104.473 28.8 99.8763 26.91C97.9835 26.1 95.5499 25.2 94.5584 27.36C94.1077 21.06 97.6229 22.32 100.237 23.4C104.834 25.29 111.413 29.7 114.748 32.13C119.976 36 128.088 46.62 127.908 51.48Z" fill="#4E4E4E"/>
<path d="M103.752 65.61C102.58 62.64 103.031 58.77 102.4 53.55C101.409 45.9 100.868 39.51 100.417 35.64C99.8763 30.6 102.31 31.68 104.022 32.58C107.177 34.11 111.594 37.71 113.847 39.6C117.362 42.57 124.483 51.39 124.483 55.08C121.328 59.94 113.036 64.71 103.752 65.61Z" fill="#DE0A0A"/>
<path opacity="0.35" d="M124.483 54.45C122.049 50.76 118.624 46.8 116.461 45C114.207 43.11 109.701 39.51 106.636 37.98C104.924 37.08 102.49 36 103.031 41.04C103.482 45 104.022 51.3 105.014 58.95C105.284 61.38 105.374 63.45 105.465 65.34C104.924 65.43 104.383 65.52 103.842 65.52C102.67 62.55 103.121 58.68 102.49 53.46C101.499 45.81 100.958 39.42 100.507 35.55C99.9664 30.51 102.4 31.59 104.113 32.49C107.267 34.02 111.684 37.62 113.937 39.51C117.272 42.48 123.852 50.49 124.483 54.45Z" fill="#DE0A0A"/>
<path d="M177.481 45.18C179.464 53.28 204.251 67.68 207.766 64.71C210.29 62.55 210.56 49.68 210.65 46.35C210.921 36.27 209.659 29.25 210.56 25.47C211.461 21.69 208.487 18.09 202.087 22.05C195.688 25.92 184.421 34.47 177.481 45.18Z" fill="#3D243E"/>
<path d="M177.481 45.18C179.464 53.28 204.251 67.68 207.766 64.71C210.29 62.55 210.56 49.68 210.65 46.35C210.921 36.27 209.659 29.25 210.56 25.47C211.461 21.69 208.487 18.09 202.087 22.05C195.688 25.92 184.421 34.47 177.481 45.18Z" fill="#3D243E"/>
<path d="M177.481 45.18C179.464 53.28 204.251 67.68 207.766 64.71C210.29 62.55 210.56 49.68 210.65 46.35C210.921 36.27 209.659 29.25 210.56 25.47C211.461 21.69 208.487 18.09 202.087 22.05C195.688 25.92 184.421 34.47 177.481 45.18Z" fill="#4E4E4E"/>
<path opacity="0.5" d="M207.766 64.71C207.405 65.07 206.774 65.16 205.963 65.07C207.586 60.84 207.766 51.21 207.856 48.42C208.126 38.34 206.865 31.32 207.766 27.54C208.667 23.76 205.693 20.16 199.293 24.03C197.851 24.93 196.139 26.01 194.336 27.36C197.22 25.11 199.924 23.31 202.088 21.96C208.487 18 211.461 21.6 210.56 25.38C209.659 29.16 210.921 36.18 210.65 46.26C210.56 49.59 210.2 62.55 207.766 64.71Z" fill="#61376B"/>
<path d="M180.095 49.59C181.267 54.36 197.581 64.89 199.654 63.18C201.186 61.92 204.161 51.3 204.882 43.92C205.513 37.98 204.251 33.75 204.792 31.5C205.332 29.25 203.62 27.09 199.744 29.43C195.958 31.77 184.241 43.2 180.095 49.59Z" fill="#DE0A0A"/>
<path opacity="0.35" d="M204.882 43.92C204.161 51.3 201.186 61.92 199.654 63.18C199.564 63.27 199.384 63.36 199.203 63.36C200.465 59.31 201.817 53.37 202.268 48.78C202.899 42.84 201.637 38.61 202.178 36.36C202.718 34.11 201.006 31.95 197.13 34.29C193.976 36.18 185.593 44.19 180.365 50.58C180.185 50.22 180.095 49.95 180.005 49.68C184.151 43.29 195.868 31.86 199.744 29.52C203.53 27.18 205.332 29.34 204.792 31.59C204.251 33.75 205.513 37.89 204.882 43.92Z" fill="#DE0A0A"/>
<path d="M215.608 87.8399C215.878 94.32 214.075 99.99 210.921 104.85C208.938 107.91 206.504 110.79 203.62 113.22C203.079 113.67 202.538 114.21 201.907 114.66C201.366 115.11 200.736 115.56 200.105 116.01C199.654 116.37 199.203 116.64 198.753 117C198.302 117.27 197.851 117.63 197.31 117.9C195.868 118.8 194.336 119.7 192.714 120.42C192.623 120.42 192.533 120.51 192.443 120.51C192.263 120.6 192.083 120.69 191.902 120.78C191.812 120.87 191.632 120.87 191.542 120.96C191.452 121.05 191.272 121.05 191.181 121.05C190.821 121.14 190.37 121.32 189.92 121.41C189.649 121.5 189.289 121.59 189.018 121.68C188.748 121.77 188.567 121.77 188.297 121.86C188.117 121.86 187.937 121.95 187.846 121.95C187.396 122.04 186.945 122.13 186.404 122.22C185.863 122.31 185.233 122.49 184.602 122.58C183.79 122.76 182.979 122.85 182.078 123.03C181.808 123.03 181.537 123.12 181.267 123.12C180.816 123.21 180.275 123.3 179.825 123.3H179.734H179.644C179.194 123.39 178.833 123.39 178.382 123.48C177.842 123.57 177.391 123.57 176.85 123.66H176.67C176.67 123.66 176.67 123.66 176.58 123.66C175.859 123.75 175.047 123.84 174.236 123.93C173.786 124.02 173.335 124.02 172.884 124.11C172.434 124.2 171.983 124.2 171.532 124.29C171.172 124.29 170.811 124.38 170.541 124.38C169.91 124.47 169.189 124.47 168.558 124.56C168.017 124.65 167.386 124.65 166.755 124.74C166.485 124.74 166.214 124.83 165.854 124.83C164.953 124.92 164.051 125.01 163.15 125.01C162.519 125.1 161.978 125.1 161.347 125.1C160.536 125.19 159.725 125.19 158.914 125.28C158.553 125.28 158.193 125.28 157.832 125.37C157.472 125.37 157.201 125.37 156.841 125.46C156.3 125.46 155.759 125.46 155.218 125.55C154.768 125.55 154.317 125.55 153.866 125.64C153.325 125.64 152.785 125.64 152.244 125.73C151.883 125.73 151.523 125.73 151.072 125.73C150.621 125.73 150.171 125.73 149.63 125.73C141.608 125.91 133.857 125.55 127.998 124.65C127.728 124.56 127.457 124.56 127.097 124.47C126.826 124.47 126.556 124.38 126.285 124.38C125.564 124.29 124.843 124.2 124.122 124.11H124.032C123.942 124.11 123.852 124.11 123.672 124.02C123.221 123.93 122.77 123.93 122.229 123.84C121.779 123.75 121.238 123.75 120.787 123.66C120.337 123.57 119.796 123.57 119.345 123.48C118.894 123.39 118.534 123.39 118.083 123.3C117.993 123.3 117.993 123.3 117.903 123.3C117.452 123.21 116.912 123.12 116.461 123.03C116.01 122.94 115.469 122.85 115.019 122.76C114.568 122.67 114.117 122.58 113.667 122.49H113.577C113.216 122.4 112.765 122.31 112.405 122.13C112.315 122.13 112.315 122.13 112.225 122.13C109.25 121.23 106.456 119.97 104.022 118.35C103.572 118.08 103.211 117.81 102.761 117.54C102.4 117.27 101.949 117 101.589 116.64C101.138 116.28 100.688 115.92 100.237 115.56C100.147 115.47 100.057 115.38 99.9664 115.29C98.2539 113.76 96.7216 112.05 95.3696 110.25C94.5584 109.08 93.8374 107.91 93.3867 106.56C91.2235 100.89 91.7643 93.9599 92.3952 88.2899C92.6656 85.5 93.1163 82.8 93.4769 80.1C94.2881 74.79 95.9104 69.6599 98.5243 65.0699C99.696 62.9999 101.048 61.11 102.49 59.3099C103.121 58.59 103.752 57.9599 104.383 57.2399C106.005 55.6199 107.808 54.1799 109.791 52.9199C112.675 51.1199 115.83 49.59 119.255 48.15C119.706 47.97 120.156 47.79 120.607 47.61C121.598 47.25 122.68 46.7999 123.672 46.4399C124.302 46.1699 125.023 45.99 125.654 45.81C130.792 44.19 136.29 43.02 142.059 42.21C147.016 41.58 152.064 41.22 157.201 41.31C159.635 41.31 162.068 41.3999 164.502 41.4899C169.189 41.6699 173.876 42.1199 178.382 43.0199C180.185 43.3799 181.898 43.8299 183.61 44.3699C184.061 44.4599 184.512 44.6399 184.962 44.8199C189.559 46.4399 193.976 48.6899 197.941 52.0199C198.933 52.9199 199.924 53.82 200.916 54.81C201.186 55.08 201.457 55.3499 201.727 55.71C201.727 55.71 201.727 55.71 201.727 55.8C201.817 55.89 201.907 55.9799 201.997 56.16C202.088 56.25 202.268 56.4299 202.358 56.5199C202.628 56.8799 202.899 57.15 203.169 57.51C203.439 57.8699 203.71 58.23 204.07 58.68C204.251 58.86 204.341 59.0399 204.521 59.3099C204.521 59.4 204.611 59.4899 204.701 59.4899C204.882 59.7599 205.062 60.03 205.242 60.3C205.422 60.57 205.603 60.84 205.783 61.11C205.873 61.2899 205.963 61.3799 206.053 61.5599C206.144 61.65 206.234 61.8299 206.324 61.9199C206.414 62.0999 206.504 62.1899 206.594 62.3699C206.774 62.7299 207.045 63.09 207.225 63.45C207.405 63.72 207.495 63.99 207.676 64.26C208.487 65.79 209.298 67.2299 209.929 68.6699C210.47 69.7499 210.921 70.92 211.371 71.91C211.642 72.45 211.822 72.99 212.002 73.53C212.182 74.07 212.363 74.61 212.543 75.06C212.723 75.6 212.903 76.1399 213.084 76.5899C213.264 77.2199 213.444 77.85 213.625 78.48C213.805 79.11 213.985 79.7399 214.075 80.3699C214.346 81.5399 214.526 82.8 214.706 83.88C214.706 84.15 214.796 84.42 214.796 84.6C214.796 84.87 214.886 85.1399 214.886 85.3199C214.886 85.4099 214.886 85.41 214.886 85.5C214.886 85.59 214.886 85.68 214.886 85.68C214.886 85.77 214.886 85.86 214.886 85.95C214.886 86.04 214.886 86.13 214.886 86.31C215.607 86.94 215.608 87.3899 215.608 87.8399Z" fill="#4E4E4E"/>
<path d="M141.969 84.96L141.698 82.26C141.608 80.82 140.707 80.64 140.166 82.17L139.986 82.8C139.625 84.78 138.904 85.32 136.831 84.96L98.975 79.38C97.3526 79.02 97.3526 81.99 98.6144 82.17L139.084 87.75C140.707 87.93 141.969 87.12 141.969 84.96Z" fill="#1D111E"/>
<path d="M140.346 87.93C138.634 116.19 96.0908 111.96 99.3356 82.26L140.346 87.93Z" fill="#FABD3C"/>
<path opacity="0.9" d="M140.256 89.55C137.101 115.56 97.4427 111.42 99.2454 83.61C100.778 106.92 134.217 110.52 140.256 89.55Z" fill="#FABD3C"/>
<path d="M134.578 86.94C133.316 107.28 102.67 104.22 105.014 82.89L134.578 86.94Z" fill="#1D111E"/>
<path d="M110.242 88.2C104.834 90.18 102.49 94.05 104.924 94.59C107.267 95.13 111.053 91.08 111.864 90.27C113.577 88.65 113.126 87.12 110.242 88.2Z" fill="white"/>
<path d="M111.684 93.96C107.988 95.31 106.456 98.01 107.988 98.37C109.611 98.73 112.225 95.94 112.765 95.4C113.937 94.32 113.577 93.24 111.684 93.96Z" fill="white"/>
<path d="M202.358 81.9L161.888 87.48C159.364 87.84 158.373 86.94 158.553 84.24C158.553 83.7 158.733 81.99 158.733 81.99C158.824 80.37 160.085 81 160.266 81.9C160.626 84.87 162.429 84.96 164.322 84.69L202.178 79.11C204.161 78.84 204.251 81.63 202.358 81.9Z" fill="#1D111E"/>
<path d="M160.085 87.66C161.798 115.92 204.341 111.69 201.096 81.99L160.085 87.66Z" fill="#FABD3C"/>
<path opacity="0.9" d="M160.536 91.35C167.657 110.88 199.924 106.83 201.186 83.7C202.628 110.52 165.493 115.02 160.536 91.35Z" fill="#FABD3C"/>
<path d="M165.854 86.67C167.116 107.01 197.761 103.95 195.418 82.62L165.854 86.67Z" fill="#1D111E"/>
<path d="M190.19 87.93C195.598 89.91 197.941 93.78 195.508 94.32C193.164 94.86 189.379 90.81 188.568 90C186.855 88.38 187.306 86.94 190.19 87.93Z" fill="white"/>
<path d="M188.838 93.78C192.533 95.13 194.066 97.83 192.533 98.19C190.911 98.55 188.297 95.76 187.756 95.22C186.494 94.05 186.855 93.06 188.838 93.78Z" fill="white"/>
<path d="M154.227 95.22C153.776 94.05 146.205 94.05 145.394 95.58C144.763 96.75 147.917 100.89 149.81 100.89C151.252 100.89 154.858 96.84 154.227 95.22Z" fill="#DE0A0A"/>
<path opacity="0.28" d="M149.81 100.89C148.278 100.89 146.025 98.28 145.484 96.66C146.475 97.92 147.827 99.18 148.819 99.18C149.99 99.18 152.514 96.57 153.145 94.77C153.686 94.95 154.046 95.13 154.227 95.31C154.858 96.84 151.252 100.89 149.81 100.89Z" fill="#DE0A0A"/>
<path opacity="0.5" d="M175.859 117.63H175.949C176.58 117.81 177.391 117.9 178.202 117.99C178.743 118.08 179.284 118.17 179.825 118.26C180.816 118.44 181.898 118.53 182.979 118.71C183.7 118.8 184.511 118.98 185.323 119.07C187.666 119.52 190.01 119.97 191.993 120.51C192.804 120.78 193.615 121.05 194.246 121.32C196.139 122.22 198.031 123.3 200.105 123.21C201.186 123.12 202.268 122.67 203.349 122.85C204.791 123.03 205.963 124.29 207.495 124.38C208.667 124.47 209.839 123.93 211.011 124.02C211.822 124.11 212.543 124.47 213.354 124.65C214.796 124.92 216.689 124.56 217.5 125.82C217.771 126.27 217.861 126.9 218.131 127.35C218.402 127.8 218.762 128.07 219.213 128.34C221.376 129.51 223.99 129.15 226.333 128.88C226.964 128.79 227.775 128.61 228.046 127.98C228.316 127.44 227.866 126.72 227.325 126.45C226.784 126.18 226.063 126.36 225.522 126.54M235.437 104.31C234.355 104.13 233.003 103.32 233.274 102.24C233.364 101.61 233.995 101.16 234.626 101.07C235.256 100.98 235.887 101.16 236.518 101.34C237.961 101.88 239.673 102.96 239.493 104.49C239.403 105.3 238.772 106.02 237.961 106.47C237.239 106.83 236.338 107.01 235.527 107.1C233.364 107.37 230.93 107.64 229.398 106.11C228.947 105.66 228.587 105.12 227.956 104.85C226.694 104.4 225.522 105.57 224.801 106.65C223.99 107.73 222.728 108.9 221.556 108.27C220.745 107.91 220.475 106.83 219.934 106.2C219.123 105.12 217.5 104.76 216.329 105.48C215.878 105.75 215.517 106.11 215.067 106.38C214.616 106.65 213.985 106.65 213.625 106.29C213.444 106.11 213.354 105.84 213.174 105.66C212.723 105.03 211.822 104.76 211.101 104.85C211.101 104.85 211.101 104.85 211.011 104.85C210.29 104.94 209.569 105.21 208.847 105.48C207.315 106.02 205.693 106.38 204.07 106.56C202.809 106.74 201.457 106.83 200.105 106.92C199.113 107.01 198.031 107.1 197.04 107.19C189.469 108 184.602 110.88 177.121 109.44L235.437 104.31ZM233.724 118.35C234.626 118.35 235.617 118.35 236.428 117.81C237.149 117.27 237.6 116.19 237.059 115.47C236.789 115.02 236.248 114.84 235.797 114.75C233.274 114.03 230.389 114.3 228.046 115.47C227.145 115.92 226.243 116.55 225.162 116.55C223.81 116.55 222.548 115.47 221.196 115.38C219.934 115.29 218.762 116.1 217.59 116.55C215.517 117.27 213.084 116.91 211.281 115.56C210.74 115.11 210.109 114.57 209.388 114.66C209.118 114.75 208.938 114.84 208.667 115.02C207.495 115.83 206.414 117.09 204.882 117.27C203.8 117.36 202.809 117 201.817 116.64C201.366 116.46 200.916 116.28 200.375 116.1C199.474 115.83 198.392 115.56 197.31 115.29C196.409 115.11 195.418 114.93 194.426 114.75C188.477 113.76 181.447 113.31 177.301 113.58L233.724 118.35Z" stroke="#1D111E" stroke-width="0.6781" stroke-miterlimit="10" stroke-linecap="round" stroke-linejoin="round"/>
<path opacity="0.65" d="M150.531 94.95C149.269 94.59 147.286 94.86 146.115 95.58C145.844 95.76 145.934 96.21 146.295 96.21C146.926 96.21 147.557 95.94 148.278 95.85C148.999 95.67 149.72 95.67 150.441 95.67C150.712 95.67 150.892 95.13 150.531 94.95Z" fill="#DE0A0A"/>
<path d="M118.083 120.96C126.446 120.96 133.226 116.286 133.226 110.52C133.226 104.754 126.446 100.08 118.083 100.08C109.72 100.08 102.941 104.754 102.941 110.52C102.941 116.286 109.72 120.96 118.083 120.96Z" fill="url(#paint0_radial_2229_3999)"/>
<path d="M185.142 119.25C193.505 119.25 200.285 114.576 200.285 108.81C200.285 103.044 193.505 98.37 185.142 98.37C176.779 98.37 170 103.044 170 108.81C170 114.576 176.779 119.25 185.142 119.25Z" fill="url(#paint1_radial_2229_3999)"/>
<path opacity="0.43" d="M138.183 82.98C134.668 82.98 131.062 81.9 127.547 81.09C124.212 80.37 120.877 79.47 117.452 79.11C117.002 79.02 116.912 79.74 117.362 79.92C120.877 81 124.663 81.63 128.268 82.44C129.981 82.8 131.784 83.16 133.496 83.52C135.028 83.88 136.741 84.42 138.273 83.88C138.814 83.79 138.724 82.98 138.183 82.98Z" fill="#3D243E"/>
<path opacity="0.43" d="M201.637 77.4C195.147 77.58 188.568 78.93 182.168 79.83C178.833 80.28 175.588 80.73 172.253 81.27C170.451 81.54 161.708 83.61 161.798 80.37C161.798 79.83 160.897 79.65 160.806 80.28C160.356 83.43 164.502 83.25 166.485 83.16C170.27 82.89 174.056 82.17 177.842 81.63C185.773 80.46 193.615 79.11 201.637 78.57C202.268 78.48 202.268 77.4 201.637 77.4Z" fill="#3D243E"/>
<path d="M140.166 45.09C143.05 41.04 150.171 35.1 152.154 36.63C152.694 37.08 150.171 39.42 149.81 41.04C152.514 39.15 158.553 34.74 158.553 36.63C158.643 37.53 157.291 39.33 156.66 40.59C158.102 39.24 164.772 35.37 165.043 37.26C165.313 39.15 165.133 41.13 164.592 43.02C159.725 43.65 154.858 44.19 149.99 44.82L140.166 45.09Z" fill="#4E4E4E"/>
<path opacity="0.5" d="M215.608 87.84C215.878 94.32 214.075 99.99 210.921 104.85C208.938 107.91 206.504 110.79 203.62 113.22C203.079 113.67 202.538 114.21 201.907 114.66C201.366 115.11 200.736 115.56 200.105 116.01C199.654 116.37 199.203 116.64 198.753 117C198.302 117.27 197.851 117.63 197.31 117.9C195.868 118.8 194.336 119.61 192.714 120.42C192.623 120.51 192.533 120.51 192.443 120.51C192.263 120.6 192.083 120.69 191.902 120.78C191.812 120.87 191.632 120.87 191.542 120.96C191.452 121.05 191.272 121.05 191.181 121.05C190.821 121.14 190.37 121.32 189.92 121.41C189.649 121.5 189.289 121.59 189.018 121.68C188.748 121.77 188.567 121.77 188.297 121.86C188.117 121.86 187.937 121.95 187.846 121.95C187.396 122.04 186.945 122.13 186.404 122.22C185.863 122.31 185.233 122.49 184.602 122.58C183.52 122.76 182.438 122.94 181.267 123.12C180.816 123.21 180.275 123.3 179.825 123.3H179.734H179.644C179.194 123.39 178.833 123.39 178.382 123.48C177.842 123.57 177.391 123.57 176.85 123.66H176.67H176.58C175.859 123.75 175.047 123.84 174.236 123.93C173.786 124.02 173.335 124.02 172.884 124.11C172.434 124.2 171.983 124.2 171.532 124.29C171.172 124.29 170.811 124.38 170.541 124.38C169.91 124.47 169.189 124.47 168.558 124.56C168.017 124.65 167.386 124.65 166.755 124.74C166.485 124.74 166.214 124.83 165.854 124.83C164.953 124.92 164.051 125.01 163.15 125.01C162.519 125.1 161.978 125.1 161.347 125.1C160.536 125.19 159.725 125.19 158.914 125.28C158.553 125.28 158.193 125.28 157.832 125.37C157.472 125.37 157.201 125.37 156.841 125.46C156.3 125.46 155.759 125.46 155.218 125.55C154.768 125.55 154.317 125.55 153.866 125.64C153.325 125.64 152.785 125.64 152.244 125.73C151.883 125.73 151.523 125.73 151.072 125.73C150.621 125.73 150.171 125.73 149.63 125.73C141.608 125.91 133.857 125.55 127.998 124.65C127.457 124.56 126.826 124.47 126.285 124.38C125.564 124.29 124.843 124.2 124.122 124.11H124.032C123.491 124.02 122.86 123.93 122.32 123.93C121.869 123.84 121.328 123.84 120.877 123.75C120.427 123.66 119.886 123.66 119.435 123.57C118.985 123.48 118.624 123.48 118.173 123.39C118.083 123.39 118.083 123.39 117.993 123.39C117.542 123.3 117.002 123.21 116.551 123.12C116.1 123.03 115.56 122.94 115.109 122.85C114.658 122.76 114.208 122.67 113.757 122.58H113.667C113.306 122.49 112.855 122.4 112.495 122.22C112.405 122.22 112.405 122.22 112.315 122.22C109.34 121.32 106.546 120.06 104.113 118.44C103.662 118.17 103.301 117.9 102.851 117.63C102.4 117.36 102.039 117.09 101.679 116.73C103.211 117.54 105.735 118.35 109.16 119.16C111.413 119.7 113.937 120.15 116.731 120.6C117.633 120.78 118.624 120.87 119.616 121.05C121.058 121.23 122.59 121.41 124.212 121.59C124.302 121.59 124.483 121.59 124.573 121.59C125.835 121.68 127.097 121.86 128.449 121.95C143.14 123.21 161.167 123.21 176.039 120.51L176.76 120.42C178.112 120.15 179.374 119.88 180.726 119.61C181.177 119.52 181.627 119.43 182.078 119.25C182.348 119.16 182.619 119.16 182.889 119.07C187.035 117.99 190.821 116.55 194.156 114.93C196.319 113.76 198.302 112.5 199.924 111.06C201.457 109.71 202.718 108.36 203.89 106.92C214.436 93.6 210.38 75.42 206.774 65.34C206.594 64.89 206.414 64.44 206.234 63.99C204.882 60.48 203.71 58.14 203.53 57.78C203.8 58.14 204.07 58.5 204.431 58.95C204.611 59.13 204.701 59.31 204.882 59.58C204.882 59.67 204.972 59.76 205.062 59.76C205.242 60.03 205.422 60.3 205.603 60.57C205.783 60.84 205.963 61.11 206.144 61.38C206.234 61.56 206.324 61.65 206.414 61.83C206.504 61.92 206.594 62.1 206.684 62.19C206.774 62.37 206.865 62.46 206.955 62.64C207.135 63 207.405 63.36 207.586 63.72C207.766 63.99 207.856 64.26 208.036 64.53C208.847 66.06 209.659 67.5 210.29 68.94C210.83 70.02 211.281 71.19 211.732 72.18C212.002 72.72 212.182 73.26 212.363 73.8C212.543 74.34 212.723 74.88 212.904 75.33C213.084 75.87 213.264 76.41 213.444 76.86C213.625 77.49 213.805 78.12 213.985 78.75C214.165 79.38 214.346 80.01 214.436 80.64C214.706 81.81 214.886 83.07 215.067 84.15C215.067 84.42 215.157 84.69 215.157 84.87C215.157 85.14 215.247 85.41 215.247 85.59C215.247 85.68 215.247 85.68 215.247 85.77C215.247 85.86 215.247 85.95 215.247 85.95C215.247 86.04 215.247 86.13 215.247 86.22C215.247 86.31 215.247 86.4 215.247 86.58C215.607 86.94 215.608 87.39 215.608 87.84Z" fill="#323232"/>
<path opacity="0.5" d="M82.751 126.72C82.2102 126.45 81.4891 126.36 80.9483 126.63C80.4075 126.9 79.9568 127.62 80.2272 128.16C80.4976 128.79 81.2187 128.97 81.9398 129.06C84.3734 129.42 86.8971 129.69 89.0603 128.52C89.511 128.25 89.8715 127.98 90.1419 127.53C90.4123 127.08 90.5024 126.45 90.7728 126C91.584 124.74 93.4768 125.1 94.919 124.83C95.7302 124.65 96.4512 124.29 97.2624 124.2C98.4342 124.11 99.6059 124.65 100.778 124.56C102.22 124.38 103.482 123.21 104.924 123.03C106.005 122.85 107.087 123.3 108.169 123.39C109.791 123.48 111.233 122.85 112.675 122.13C113.126 121.95 113.486 121.68 113.937 121.5C114.478 121.23 115.109 120.96 115.74 120.78C116.1 120.69 116.551 120.51 116.912 120.42C119.345 119.79 122.229 119.25 125.114 118.8C125.745 118.71 126.375 118.62 126.916 118.53C127.277 118.44 127.637 118.44 127.998 118.35C129.62 118.08 131.153 117.9 132.324 117.63M131.062 109.44C123.581 110.88 118.714 108 111.143 107.19C108.799 106.92 106.366 106.83 103.932 106.47C102.4 106.2 100.778 105.93 99.3355 105.39C98.6144 105.12 97.8934 104.85 97.0822 104.76C96.271 104.67 95.4598 104.94 95.0091 105.57C94.8288 105.75 94.7387 106.02 94.5584 106.2C94.288 106.47 93.9275 106.47 93.567 106.47C93.3867 106.47 93.2064 106.38 93.0262 106.29C92.5755 106.02 92.215 105.66 91.7643 105.39C90.5926 104.76 88.9702 105.03 88.159 106.11C87.6182 106.83 87.3478 107.82 86.5366 108.18C85.3648 108.72 84.103 107.64 83.2918 106.56C82.4806 105.48 81.3088 104.31 80.1371 104.76C79.5963 105.03 79.1456 105.57 78.695 106.02C77.1627 107.46 74.639 107.28 72.5659 107.01C71.7547 106.92 70.8534 106.74 70.1323 106.38C69.4112 106.02 68.6902 105.3 68.6 104.4C68.4198 102.87 70.1323 101.79 71.5744 101.25C72.2054 101.07 72.8363 100.89 73.4672 100.98C74.0982 101.07 74.7291 101.52 74.8192 102.15C75.0896 103.23 73.7376 104.04 72.656 104.22L131.062 109.44ZM131.062 113.4C124.843 113.13 112.315 114.21 106.546 116.46C106.276 116.55 106.095 116.64 105.825 116.73C105.014 117 104.293 117.27 103.482 117.09C102.22 116.91 101.318 116.01 100.327 115.29C100.147 115.2 99.9664 115.02 99.7862 114.93C99.6059 114.75 99.3355 114.66 99.0651 114.57C98.344 114.48 97.7131 115.02 97.1723 115.47C95.4598 116.82 92.936 117.18 90.863 116.46C89.6912 116.01 88.5195 115.2 87.2576 115.29C85.8155 115.38 84.6438 116.46 83.2016 116.46C82.2102 116.46 81.3088 115.83 80.3174 115.38C77.8838 114.21 75.0896 113.94 72.5659 114.66C72.0251 114.75 71.5744 115.02 71.304 115.38C70.7632 116.1 71.2139 117.27 71.935 117.72C72.7462 118.26 73.6475 118.26 74.639 118.26L131.062 113.4Z" stroke="#1D111E" stroke-width="0.6781" stroke-miterlimit="10" stroke-linecap="round" stroke-linejoin="round"/>
<path opacity="0.5" d="M179.734 123.39C178.923 122.31 177.932 121.23 176.94 120.24C176.67 119.97 176.399 119.7 176.129 119.43C175.047 118.44 173.876 117.36 172.704 116.46C168.468 113.13 163.51 110.61 158.283 109.44C158.193 109.98 157.922 110.43 157.652 110.52C157.021 110.7 156.21 109.8 155.489 108.99C152.244 108.63 148.909 108.9 145.574 109.89C145.123 110.61 144.673 111.15 144.222 111.06C144.042 111.06 143.861 110.79 143.681 110.52C142.78 110.88 141.878 111.24 141.067 111.69C139.174 112.68 137.282 113.85 135.479 115.29C135.118 115.56 134.758 115.83 134.397 116.19C131.513 118.62 128.899 121.41 126.376 124.29C123.942 127.08 121.328 129.87 119.165 132.93L119.075 133.02C119.435 131.4 121.508 125.55 121.779 124.2L122.68 123.84C122.139 123.75 123.221 123.93 122.68 123.84C123.311 123.03 123.942 122.22 124.573 121.41C124.663 121.23 124.843 121.05 124.933 120.87C125.384 120.33 125.835 119.79 126.376 119.25C126.646 118.98 126.826 118.71 127.097 118.44C127.728 117.72 128.449 117 129.17 116.37C130.341 115.2 131.603 114.03 132.955 112.95C133.136 112.77 133.316 112.68 133.406 112.59C136.2 110.34 139.174 108.63 142.149 107.46C140.977 106.47 141.067 105.66 141.067 105.66L160.085 104.76C160.085 105.3 159.995 105.75 159.725 106.2C163.42 107.1 167.026 108.54 170.27 110.52C173.876 112.68 177.211 115.29 180.005 118.26C180.095 118.35 180.185 118.44 180.275 118.53C180.546 118.8 180.726 118.98 180.906 119.25C181.717 120.15 182.529 121.14 183.25 122.13C184.782 121.59 186.404 121.5 187.937 121.86C187.486 121.95 187.035 122.04 186.494 122.13C185.954 122.22 185.323 122.4 184.692 122.49C183.881 122.67 183.069 122.76 182.168 122.94C181.898 122.94 181.627 123.03 181.357 123.03C180.906 123.12 180.365 123.21 179.915 123.21H179.825C179.825 123.39 179.825 123.39 179.734 123.39Z" fill="#61376B"/>
<path d="M256.258 288.36H46.4272C39.5771 288.36 34.079 282.87 34.079 276.03H268.606C268.606 282.87 263.108 288.36 256.258 288.36Z" fill="#0787A4"/>
<path d="M261.756 154.8V263.16C261.756 272.88 253.824 280.8 244.09 280.8H58.415C48.6806 280.8 40.7489 272.88 40.7489 263.16V154.8C40.7489 145.08 48.6806 137.16 58.415 137.16H244.09C253.914 137.25 261.756 145.08 261.756 154.8Z" fill="#0787A4"/>
<path d="M242.377 276.12H60.3078C53.5478 276.12 48.1398 270.63 48.1398 263.97V154.17C48.1398 147.42 53.6379 142.02 60.3078 142.02H242.377C249.137 142.02 254.545 147.51 254.545 154.17V263.97C254.545 270.63 249.137 276.12 242.377 276.12Z" fill="#4E4E4E"/>
<path d="M254.545 150.39V263.88C254.545 267.84 252.652 271.44 249.678 273.6C251.21 271.53 252.112 269.01 252.112 266.31V152.91C252.112 148.23 248.326 144.36 243.549 144.36H57.7841C55.0801 144.36 52.5563 145.26 50.4833 146.79C52.7366 143.82 56.2518 141.93 60.2177 141.93H245.982C250.76 141.93 254.545 145.71 254.545 150.39Z" fill="#323232"/>
<g opacity="0.78">
<path d="M264.099 276.12C245.442 276.66 226.694 277.02 208.036 277.2C198.662 277.29 189.379 277.38 180.005 277.47L151.973 277.56L123.942 277.47C114.568 277.38 105.284 277.38 95.9105 277.2C77.2529 277.02 58.5051 276.66 39.8475 276.12H264.099Z" fill="#323232"/>
</g>
<g opacity="0.2">
<path d="M221.737 155.25H77.974C74.0081 155.25 70.7633 158.49 70.7633 162.45V258.57C70.7633 262.53 74.0081 265.77 77.974 265.77H221.737C225.703 265.77 228.947 262.53 228.947 258.57V162.36C228.947 158.4 225.703 155.25 221.737 155.25Z" fill="#E4640A"/>
<path d="M80.5879 165.87C81.6332 165.87 82.4807 165.024 82.4807 163.98C82.4807 162.936 81.6332 162.09 80.5879 162.09C79.5425 162.09 78.6951 162.936 78.6951 163.98C78.6951 165.024 79.5425 165.87 80.5879 165.87Z" fill="black"/>
<path d="M89.3308 165.87C90.3762 165.87 91.2236 165.024 91.2236 163.98C91.2236 162.936 90.3762 162.09 89.3308 162.09C88.2854 162.09 87.438 162.936 87.438 163.98C87.438 165.024 88.2854 165.87 89.3308 165.87Z" fill="black"/>
<path d="M98.1639 165.87C99.2093 165.87 100.057 165.024 100.057 163.98C100.057 162.936 99.2093 162.09 98.1639 162.09C97.1186 162.09 96.2711 162.936 96.2711 163.98C96.2711 165.024 97.1186 165.87 98.1639 165.87Z" fill="black"/>
</g>
<path d="M231.832 159.48V255.6C231.832 259.56 228.587 262.8 224.621 262.8H80.9483C76.9825 262.8 73.7377 259.56 73.7377 255.6V159.48C73.7377 155.52 76.9825 152.28 80.9483 152.28H224.711C228.677 152.28 231.832 155.52 231.832 159.48Z" fill="white"/>
<g clip-path="url(#clip0_2229_3999)">
<path d="M151 183C157.186 183.007 163.117 185.467 167.492 189.842C171.866 194.216 174.327 200.147 174.333 206.333C174.333 218.658 154.733 235.577 152.507 237.467L151 238.741L149.493 237.467C147.267 235.577 127.667 218.658 127.667 206.333C127.673 200.147 130.134 194.216 134.508 189.842C138.883 185.467 144.814 183.007 151 183V183ZM151 218C153.307 218 155.563 217.316 157.482 216.034C159.4 214.752 160.896 212.93 161.779 210.798C162.662 208.666 162.893 206.32 162.443 204.057C161.992 201.794 160.881 199.715 159.25 198.084C157.618 196.452 155.539 195.341 153.276 194.891C151.013 194.441 148.667 194.672 146.535 195.555C144.404 196.438 142.582 197.933 141.3 199.852C140.018 201.77 139.333 204.026 139.333 206.333C139.337 209.426 140.567 212.392 142.755 214.579C144.942 216.766 147.907 217.996 151 218Z" fill="#0787A4"/>
<path d="M151 213.333C147.134 213.333 144 210.199 144 206.333C144 202.467 147.134 199.333 151 199.333C154.866 199.333 158 202.467 158 206.333C158 210.199 154.866 213.333 151 213.333Z" fill="#0787A4"/>
</g>
<path d="M231.832 159.48V169.83H73.7377V159.48C73.7377 155.52 76.9825 152.28 80.9483 152.28H224.711C228.677 152.28 231.832 155.52 231.832 159.48Z" fill="#323232"/>
<path d="M83.5622 162.9C84.6076 162.9 85.455 162.054 85.455 161.01C85.455 159.966 84.6076 159.12 83.5622 159.12C82.5169 159.12 81.6694 159.966 81.6694 161.01C81.6694 162.054 82.5169 162.9 83.5622 162.9Z" fill="white"/>
<path d="M92.3052 162.9C93.3505 162.9 94.198 162.054 94.198 161.01C94.198 159.966 93.3505 159.12 92.3052 159.12C91.2598 159.12 90.4124 159.966 90.4124 161.01C90.4124 162.054 91.2598 162.9 92.3052 162.9Z" fill="white"/>
<path d="M101.048 162.9C102.093 162.9 102.941 162.054 102.941 161.01C102.941 159.966 102.093 159.12 101.048 159.12C100.003 159.12 99.1553 159.966 99.1553 161.01C99.1553 162.054 100.003 162.9 101.048 162.9Z" fill="white"/>
<path opacity="0.5" d="M114.388 137.25H118.264C117.362 138.96 116.551 140.67 115.74 142.29C115.469 142.83 115.199 143.46 114.929 144C113.937 146.16 112.946 148.32 111.954 150.48C109.431 156.06 107.087 161.55 105.194 167.22C104.653 168.93 104.113 170.55 103.572 172.26C103.482 172.53 103.482 172.71 103.482 172.98C103.482 173.07 103.482 173.07 103.482 173.16V173.61C103.482 173.7 103.482 173.7 103.482 173.79C103.482 173.88 103.482 173.97 103.482 174.06V174.15C103.482 174.24 103.482 174.33 103.572 174.42C103.572 174.42 103.572 174.42 103.572 174.51C103.662 174.78 103.752 174.87 103.842 174.96C103.842 174.96 103.842 174.96 103.752 174.87C103.482 174.69 102.941 174.33 102.761 174.15C102.761 174.15 102.761 174.15 102.67 174.15L103.301 175.95C102.67 175.68 102.4 175.05 102.4 174.42C102.4 174.6 102.31 174.78 102.31 174.96C102.13 174.42 102.04 174.15 101.859 173.97L102.04 176.22C101.319 175.68 101.409 174.6 101.589 173.88C101.499 173.88 101.409 173.97 101.409 173.97C101.409 173.97 100.868 174.33 100.688 174.33L100.057 175.95C100.057 175.32 100.327 174.6 100.597 174.06C100.507 173.7 100.417 173.25 100.147 173.16C99.6961 173.88 99.0652 174.69 98.1638 174.78L99.606 173.34C98.8849 173.7 98.6145 173.43 98.6145 173.43C99.4257 173.16 100.147 171.72 100.147 171.72C102.941 161.73 107.267 152.28 111.774 142.65C112.585 140.76 113.396 139.05 114.388 137.25Z" fill="#61376B"/>
<path opacity="0.5" d="M198.392 141.57L198.122 141.75C197.581 142.02 196.95 141.93 196.589 141.39L194.877 138.6L190.641 141.21L192.353 144C192.714 144.54 192.533 145.17 191.993 145.53L191.722 145.71C191.181 146.07 190.55 145.89 190.19 145.35L188.477 142.56L185.864 144.18C184.962 144.72 183.79 144.45 183.25 143.55L179.464 137.43L179.284 137.16H196.95L196.86 137.25L198.572 140.04C199.023 140.58 198.843 141.21 198.392 141.57Z" fill="#61376B"/>
<path d="M101.318 170.37C101.318 170.37 100.147 171.99 100.147 173.25" stroke="#DE0A0A" stroke-width="0.6294" stroke-miterlimit="10" stroke-linecap="round" stroke-linejoin="round"/>
<path d="M101.949 170.46C101.949 170.46 101.138 172.71 102.22 173.52" stroke="white" stroke-width="0.6294" stroke-miterlimit="10" stroke-linecap="round" stroke-linejoin="round"/>
<path d="M102.58 170.73C102.58 170.73 102.22 172.8 103.482 173.25" stroke="#0032D0" stroke-width="0.6294" stroke-miterlimit="10" stroke-linecap="round" stroke-linejoin="round"/>
<path d="M100.688 169.65C100.688 169.65 99.696 171.99 98.2539 171.99" stroke="#D30000" stroke-width="0.6294" stroke-miterlimit="10" stroke-linecap="round" stroke-linejoin="round"/>
<path d="M183.25 119.61C174.597 108.18 158.193 98.64 142.419 104.76C139.265 106.02 136.2 107.73 133.316 110.07C122.77 118.26 116.281 130.32 111.864 139.86C107.357 149.49 103.121 158.94 100.237 168.93C100.237 168.93 99.5158 170.37 98.7046 170.64C98.7046 170.64 99.0651 170.91 99.9665 170.37C100.507 170.1 100.778 171.18 100.778 171.45C100.778 171.72 101.589 171.18 101.589 171.18C101.589 171.18 102.04 170.55 102.49 172.17C102.58 171.45 102.761 171.18 102.941 171.36C103.121 171.54 104.022 172.17 104.022 172.17C104.022 172.17 103.301 171.72 103.662 169.56C106.456 159.93 110.602 150.66 115.019 141.3C119.345 132.03 125.564 120.51 135.479 112.77C138.183 110.7 140.887 109.08 143.681 108C157.742 102.51 172.614 111.24 180.546 121.68C181.447 122.94 182.348 124.2 183.25 125.64L186.134 123.84C185.142 122.31 184.241 120.96 183.25 119.61Z" fill="#2B232D"/>
<path opacity="0.5" d="M186.134 123.84L183.25 125.64C182.348 124.29 181.447 122.94 180.546 121.68C172.704 111.24 157.742 102.51 143.681 108C140.887 109.08 138.093 110.7 135.389 112.77C125.474 120.51 119.255 132.12 114.929 141.39C110.512 150.75 106.366 160.02 103.572 169.65C103.301 171.54 103.752 172.17 103.932 172.26C103.842 172.17 103.482 171.9 103.211 171.72C103.211 171.45 103.211 171.18 103.211 171C103.211 169.56 103.572 168.21 103.932 166.86C104.293 165.69 104.653 164.52 105.104 163.35C105.915 161.01 106.726 158.67 107.718 156.33C108.619 153.99 109.611 151.65 110.602 149.4C111.594 147.06 112.675 144.72 113.757 142.47C114.117 141.57 114.568 140.76 114.929 139.86C119.255 130.59 125.474 119.07 135.389 111.33C138.093 109.26 140.797 107.64 143.681 106.56C157.742 101.07 172.614 109.8 180.546 120.24C181.447 121.5 182.348 122.76 183.25 124.2L185.413 122.85C185.593 123.03 185.863 123.39 186.134 123.84Z" fill="#140716"/>
<path d="M158.553 104.04C158.553 104.04 158.553 107.73 157.652 108C156.57 108.36 154.497 105.03 154.497 105.03L158.553 104.04Z" fill="white"/>
<path d="M142.509 104.76C142.509 104.76 143.23 108.36 144.222 108.45C145.394 108.54 146.746 104.94 146.746 104.94L142.509 104.76Z" fill="white"/>
<path d="M140.346 102.69C140.346 102.69 143.501 109.62 150.171 104.22C153.776 108.27 160.266 105.57 159.995 102.15" fill="#61376B"/>
<path d="M192.083 142.83L191.812 143.01C191.272 143.37 190.641 143.19 190.28 142.65L187.306 137.88C187.125 137.61 187.216 137.34 187.486 137.16L188.658 136.44C188.928 136.26 189.199 136.35 189.379 136.62L192.353 141.39C192.714 141.84 192.533 142.56 192.083 142.83Z" fill="white"/>
<path opacity="0.5" d="M182.889 137.25H179.374L177.391 134.1C174.867 129.96 175.949 124.65 179.825 121.86C180.005 122.94 180.185 124.11 180.365 125.28C180.906 128.16 181.537 131.4 182.348 134.91C182.348 135 182.438 135.18 182.438 135.27C182.529 135.9 182.709 136.53 182.889 137.25Z" fill="#61376B"/>
<path d="M198.392 138.96L198.122 139.14C197.581 139.5 196.95 139.32 196.589 138.78L193.885 134.46C193.525 133.92 193.705 133.29 194.246 132.93L194.516 132.75C195.057 132.39 195.688 132.57 196.049 133.11L198.753 137.43C199.023 137.97 198.843 138.6 198.392 138.96Z" fill="white"/>
<path d="M198.482 133.74L185.683 141.75C184.962 142.2 183.971 142.02 183.52 141.21L178.383 133.02C175.679 128.79 177.031 123.12 181.267 120.42C185.503 117.72 191.181 119.07 193.885 123.3L199.023 131.49C199.474 132.3 199.203 133.29 198.482 133.74Z" fill="#DE0A0A"/>
<path opacity="0.3" d="M182.529 119.88C179.194 122.76 178.292 127.71 180.726 131.58L186.675 141.12L185.593 141.75C184.872 142.2 183.971 142.02 183.52 141.3L178.383 133.11C175.679 128.88 177.031 123.12 181.267 120.51C181.717 120.24 182.078 119.97 182.529 119.88Z" fill="#583929"/>
<defs>
<radialGradient id="paint0_radial_2229_3999" cx="0" cy="0" r="1" gradientUnits="userSpaceOnUse" gradientTransform="translate(118.056 110.525) rotate(-1.84425) scale(13.7435 9.51907)">
<stop offset="0.1656" stop-color="#662346"/>
<stop offset="1" stop-color="#662346" stop-opacity="0"/>
</radialGradient>
<radialGradient id="paint1_radial_2229_3999" cx="0" cy="0" r="1" gradientUnits="userSpaceOnUse" gradientTransform="translate(185.153 108.793) rotate(-1.84425) scale(13.7435 9.51907)">
<stop offset="0.1656" stop-color="#662346"/>
<stop offset="1" stop-color="#662346" stop-opacity="0"/>
</radialGradient>
<clipPath id="clip0_2229_3999">
<rect width="56" height="56" fill="white" transform="matrix(-1 0 0 1 179 183)"/>
</clipPath>
</defs>
</svg>
