<svg width="100" height="25" viewBox="0 0 100 25" fill="none" xmlns="http://www.w3.org/2000/svg">
<path d="M22.5526 13.36C22.5526 15.7867 22.0743 17.84 21.1176 19.52C20.1843 21.1767 18.8893 22.4367 17.2326 23.3C15.5993 24.1633 13.7443 24.595 11.6676 24.595C9.59097 24.595 7.73597 24.1633 6.10264 23.3C4.4693 22.4367 3.18597 21.1767 2.25264 19.52C1.3193 17.84 0.852637 15.7867 0.852637 13.36C0.852637 10.9333 1.33097 8.89167 2.28764 7.235C3.2443 5.555 4.5393 4.295 6.17264 3.455C7.80597 2.59167 9.63764 2.16 11.6676 2.16C13.721 2.16 15.5643 2.59167 17.1976 3.455C18.8543 4.295 20.161 5.555 21.1176 7.235C22.0743 8.89167 22.5526 10.9333 22.5526 13.36ZM17.0576 13.36C17.0576 11.12 16.5676 9.41667 15.5876 8.25C14.631 7.08333 13.3243 6.5 11.6676 6.5C10.081 6.5 8.79764 7.08333 7.81764 8.25C6.83764 9.39333 6.34764 11.0967 6.34764 13.36C6.34764 15.6467 6.82597 17.3733 7.78264 18.54C8.76264 19.6833 10.0693 20.255 11.7026 20.255C13.336 20.255 14.631 19.6833 15.5876 18.54C16.5676 17.3733 17.0576 15.6467 17.0576 13.36ZM42.1245 16.86H36.9095V13.745C36.9095 12.6717 36.6295 11.9133 36.0695 11.47C35.5328 11.0033 34.8445 10.77 34.0045 10.77C33.2578 10.77 32.5811 10.91 31.9745 11.19C31.3911 11.47 30.8895 11.785 30.4695 12.135L30.3295 7.935C30.8661 7.63167 31.5311 7.35167 32.3245 7.095C33.1178 6.815 33.9928 6.675 34.9495 6.675C37.1661 6.675 38.9161 7.24667 40.1995 8.39C41.4828 9.51 42.1245 11.2017 42.1245 13.465V16.86ZM26.0595 14.76H31.2395V23.965C31.0061 24.035 30.6795 24.0933 30.2595 24.14C29.8395 24.21 29.3845 24.245 28.8945 24.245C27.9145 24.245 27.1911 24.07 26.7245 23.72C26.2811 23.37 26.0595 22.74 26.0595 21.83V14.76ZM36.9095 14.76H42.1245V23.965C41.8911 24.035 41.5645 24.0933 41.1445 24.14C40.7245 24.21 40.2695 24.245 39.7795 24.245C38.7761 24.245 38.0411 24.07 37.5745 23.72C37.1311 23.37 36.9095 22.74 36.9095 21.83V14.76ZM31.2395 17.455H26.0595V1.215C26.2695 1.145 26.5845 1.075 27.0045 1.005C27.4245 0.934999 27.8795 0.899999 28.3695 0.899999C29.3728 0.899999 30.0961 1.075 30.5395 1.425C31.0061 1.775 31.2395 2.41666 31.2395 3.35V17.455ZM69.2615 13.115V16.405H64.0465V13.29C64.0465 12.4267 63.7898 11.7967 63.2765 11.4C62.7865 10.98 62.1332 10.77 61.3165 10.77C60.7332 10.77 60.1965 10.8517 59.7065 11.015C59.2165 11.155 58.7732 11.33 58.3765 11.54V16.405H53.1965V10.945C53.1965 10.3617 53.3132 9.88333 53.5465 9.51C53.8032 9.11333 54.1648 8.76333 54.6315 8.46C55.3782 7.94667 56.3348 7.52667 57.5015 7.2C58.6682 6.85 59.9515 6.675 61.3515 6.675C63.8715 6.675 65.8198 7.235 67.1965 8.355C68.5732 9.45167 69.2615 11.0383 69.2615 13.115ZM53.1965 14.795H58.3765V23.965C58.1432 24.035 57.8165 24.0933 57.3965 24.14C56.9765 24.21 56.5215 24.245 56.0315 24.245C55.0515 24.245 54.3282 24.07 53.8615 23.72C53.4182 23.37 53.1965 22.74 53.1965 21.83V14.795ZM64.0465 14.795H69.2615V23.965C69.0282 24.035 68.7015 24.0933 68.2815 24.14C67.8615 24.21 67.4065 24.245 66.9165 24.245C65.9365 24.245 65.2132 24.07 64.7465 23.72C64.2798 23.37 64.0465 22.74 64.0465 21.83V14.795ZM90.3033 15.6C90.3033 17.42 89.93 19.0067 89.1833 20.36C88.46 21.69 87.4333 22.7167 86.1033 23.44C84.7733 24.1633 83.21 24.525 81.4133 24.525C79.64 24.525 78.0767 24.175 76.7233 23.475C75.3933 22.7517 74.355 21.725 73.6083 20.395C72.885 19.0417 72.5233 17.4433 72.5233 15.6C72.5233 13.7567 72.8967 12.1817 73.6433 10.875C74.39 9.545 75.4283 8.51833 76.7583 7.795C78.1117 7.04833 79.6633 6.675 81.4133 6.675C83.1867 6.675 84.7383 7.04833 86.0683 7.795C87.3983 8.51833 88.4367 9.55667 89.1833 10.91C89.93 12.24 90.3033 13.8033 90.3033 15.6ZM81.4133 10.77C80.3167 10.77 79.4417 11.19 78.7883 12.03C78.1583 12.87 77.8433 14.06 77.8433 15.6C77.8433 17.1633 78.1583 18.365 78.7883 19.205C79.4183 20.0217 80.2933 20.43 81.4133 20.43C82.5333 20.43 83.4083 20.01 84.0383 19.17C84.6683 18.33 84.9833 17.14 84.9833 15.6C84.9833 14.0833 84.6683 12.905 84.0383 12.065C83.4083 11.2017 82.5333 10.77 81.4133 10.77ZM99.1977 4.26C99.1977 4.84333 99.186 5.625 99.1627 6.605C99.1394 7.56167 99.0927 8.62333 99.0227 9.79C98.976 10.9567 98.906 12.1117 98.8127 13.255C98.7194 14.375 98.6027 15.39 98.4627 16.3C98.2994 16.44 98.0077 16.5567 97.5877 16.65C97.1677 16.72 96.806 16.755 96.5027 16.755C95.9427 16.755 95.4527 16.6617 95.0327 16.475C94.636 16.265 94.391 15.9033 94.2977 15.39C94.2044 14.8067 94.111 14.0017 94.0177 12.975C93.9477 11.925 93.8777 10.77 93.8077 9.51C93.761 8.25 93.726 7.01333 93.7027 5.8C93.6794 4.58667 93.6677 3.525 93.6677 2.615C94.531 2.10167 95.511 1.845 96.6077 1.845C97.4244 1.845 98.0544 2.04333 98.4977 2.44C98.9644 2.83667 99.1977 3.44333 99.1977 4.26ZM93.4927 21.585C93.4927 20.745 93.761 20.045 94.2977 19.485C94.8577 18.925 95.6044 18.645 96.5377 18.645C97.4477 18.645 98.171 18.925 98.7077 19.485C99.2677 20.045 99.5477 20.745 99.5477 21.585C99.5477 22.4483 99.2677 23.16 98.7077 23.72C98.171 24.28 97.4477 24.56 96.5377 24.56C95.6044 24.56 94.8577 24.28 94.2977 23.72C93.761 23.16 93.4927 22.4483 93.4927 21.585Z" fill="black"/>
</svg>
