<?xml version="1.0" standalone="no"?>
<!DOCTYPE svg PUBLIC "-//W3C//DTD SVG 20010904//EN"
 "http://www.w3.org/TR/2001/REC-SVG-20010904/DTD/svg10.dtd">
<svg version="1.0" xmlns="http://www.w3.org/2000/svg"
 width="512.000000pt" height="512.000000pt" viewBox="0 0 512.000000 512.000000"
 preserveAspectRatio="xMidYMid meet">

<g transform="translate(0.000000,512.000000) scale(0.100000,-0.100000)"
fill="#000000" stroke="none">
<path d="M1314 4676 c-418 -78 -742 -376 -852 -785 -24 -89 -26 -112 -26 -323
l-1 -226 30 -44 c88 -124 262 -124 349 0 l31 44 6 201 c5 185 8 209 33 282 36
103 83 180 157 254 74 74 150 121 254 157 73 25 96 28 282 33 l201 6 44 30
c124 88 124 262 0 350 l-44 30 -196 2 c-128 1 -222 -3 -268 -11z"/>
<path d="M3322 4669 c-147 -75 -159 -275 -21 -366 42 -28 45 -28 243 -34 184
-5 208 -8 281 -33 169 -58 298 -169 373 -321 56 -113 64 -155 71 -372 l6 -201
30 -44 c88 -124 262 -124 350 0 l30 44 -1 226 c0 212 -2 234 -26 323 -102 377
-392 667 -767 766 -85 23 -120 26 -311 30 -205 4 -217 3 -258 -18z"/>
<path d="M2475 3831 c-151 -25 -251 -76 -360 -186 -132 -131 -188 -265 -188
-445 0 -180 56 -314 188 -445 110 -111 252 -181 376 -187 19 0 -31 -4 -111 -9
-217 -11 -352 -48 -488 -136 -177 -112 -306 -286 -364 -490 -18 -63 -23 -104
-23 -208 0 -127 1 -132 33 -198 63 -128 185 -217 324 -237 82 -12 1314 -12
1396 0 139 20 261 109 324 237 32 66 33 71 33 198 0 105 -5 145 -23 208 -58
204 -188 378 -364 490 -136 88 -271 125 -488 136 -80 5 -130 9 -111 9 18 1 61
9 95 18 208 54 395 242 452 454 22 86 22 234 0 320 -57 212 -245 401 -451 454
-78 19 -187 27 -250 17z"/>
<path d="M577 1907 c-54 -17 -101 -59 -127 -112 -21 -44 -22 -54 -18 -258 5
-186 8 -224 31 -308 99 -375 389 -666 766 -767 89 -24 112 -26 323 -26 l226
-1 44 30 c124 88 124 262 0 350 l-44 30 -201 6 c-218 7 -260 15 -372 71 -155
78 -263 204 -321 374 -25 72 -28 96 -33 281 l-6 201 -30 44 c-54 76 -155 112
-238 85z"/>
<path d="M4420 1909 c-47 -14 -93 -51 -122 -96 -21 -36 -23 -51 -29 -238 -5
-189 -7 -205 -35 -285 -68 -193 -211 -336 -404 -404 -80 -28 -96 -30 -285 -35
-187 -6 -202 -8 -238 -29 -135 -84 -138 -272 -6 -359 l43 -28 225 1 c210 0
233 2 322 26 191 52 344 140 485 282 142 141 230 294 282 485 24 89 26 112 26
323 l1 226 -30 44 c-53 74 -153 111 -235 87z"/>
</g>
</svg>
