<svg width="22" height="22" viewBox="0 0 22 22" fill="none" xmlns="http://www.w3.org/2000/svg">
<path d="M17.4167 0.916626H4.58333C3.3682 0.918082 2.20326 1.40143 1.34403 2.26066C0.484808 3.11989 0.00145554 4.28483 0 5.49996L0 16.5C0.00145554 17.7151 0.484808 18.88 1.34403 19.7393C2.20326 20.5985 3.3682 21.0818 4.58333 21.0833H17.4167C18.6318 21.0818 19.7967 20.5985 20.656 19.7393C21.5152 18.88 21.9985 17.7151 22 16.5V5.49996C21.9985 4.28483 21.5152 3.11989 20.656 2.26066C19.7967 1.40143 18.6318 0.918082 17.4167 0.916626ZM4.58333 2.74996H17.4167C17.9656 2.75104 18.5016 2.91635 18.9557 3.22461C19.4099 3.53288 19.7614 3.96999 19.965 4.47971L12.9452 11.5005C12.4286 12.015 11.7291 12.3039 11 12.3039C10.2709 12.3039 9.57144 12.015 9.05483 11.5005L2.035 4.47971C2.23864 3.96999 2.59015 3.53288 3.04429 3.22461C3.49844 2.91635 4.03445 2.75104 4.58333 2.74996ZM17.4167 19.25H4.58333C3.85399 19.25 3.15451 18.9602 2.63879 18.4445C2.12306 17.9288 1.83333 17.2293 1.83333 16.5V6.87496L7.75867 12.7966C8.61908 13.6549 9.78474 14.1368 11 14.1368C12.2153 14.1368 13.3809 13.6549 14.2413 12.7966L20.1667 6.87496V16.5C20.1667 17.2293 19.8769 17.9288 19.3612 18.4445C18.8455 18.9602 18.146 19.25 17.4167 19.25Z" fill="#0787A4"/>
</svg>
