<svg width="11" height="20" viewBox="0 0 11 20" fill="none" xmlns="http://www.w3.org/2000/svg">
<path d="M1.69168 4.9681e-06C1.80136 -0.000628262 1.91007 0.0203926 2.01161 0.0618622C2.11314 0.103334 2.20548 0.164438 2.28335 0.241674L9.09168 7.05001C9.47971 7.43705 9.78757 7.89685 9.99762 8.40306C10.2077 8.90927 10.3158 9.45195 10.3158 10C10.3158 10.5481 10.2077 11.0907 9.99762 11.597C9.78757 12.1032 9.47971 12.563 9.09168 12.95L2.28335 19.7583C2.20565 19.836 2.11341 19.8977 2.01189 19.9397C1.91037 19.9818 1.80156 20.0034 1.69168 20.0034C1.5818 20.0034 1.47299 19.9818 1.37147 19.9397C1.26996 19.8977 1.17771 19.836 1.10002 19.7583C1.02232 19.6806 0.960681 19.5884 0.918632 19.4869C0.876581 19.3854 0.854939 19.2766 0.854939 19.1667C0.854939 19.0568 0.876581 18.948 0.918632 18.8465C0.960681 18.7449 1.02232 18.6527 1.10002 18.575L7.90835 11.7667C8.37652 11.2979 8.63948 10.6625 8.63948 10C8.63948 9.33751 8.37652 8.70209 7.90835 8.23334L1.10002 1.425C1.02191 1.34754 0.959913 1.25537 0.917606 1.15382C0.875299 1.05227 0.853517 0.943349 0.853517 0.833339C0.853517 0.723329 0.875299 0.614408 0.917606 0.512859C0.959913 0.411309 1.02191 0.319142 1.10002 0.241674C1.17788 0.164437 1.27023 0.103334 1.37176 0.0618622C1.47329 0.0203926 1.58201 -0.000628281 1.69168 4.9681e-06Z" fill="black"/>
</svg>
