<svg width="353" height="300" viewBox="0 0 353 300" fill="none" xmlns="http://www.w3.org/2000/svg">
<path d="M149.982 105.716L150.41 94.5024L143.476 92.2768C143.219 88.4248 142.534 84.6584 141.593 80.9776L147.414 76.6976L143.476 66.1688L136.2 66.768C134.488 63.344 132.434 60.0912 130.208 57.0096L133.974 50.7608L126.27 42.5432L119.765 45.8816C116.854 43.3992 113.773 41.1736 110.52 39.2048L111.547 32.0144L101.275 27.392L96.5672 32.8704C92.972 31.672 89.2912 30.816 85.4392 30.3024L83.7272 23.2832L72.428 22.8552L70.2024 29.7888C66.3504 30.1312 62.584 30.7304 58.9032 31.672L54.5376 25.8512L44.0088 29.7888L44.608 37.0648C41.184 38.7768 37.9312 40.8312 34.8496 43.1424L28.6008 39.376L20.3832 47.08L23.7216 53.5856C21.2392 56.496 19.0136 59.5776 17.0448 62.8304L9.85442 61.7176L5.14642 71.9896L10.7104 76.6976C9.51202 80.2928 8.65602 84.0592 8.14242 87.8256L1.03762 89.6232L0.609619 100.837L7.54322 103.062C7.80002 106.914 8.48482 110.681 9.42642 114.362L3.60562 118.642L7.54322 129.17L14.8192 128.571C16.5312 131.995 18.5856 135.248 20.8112 138.33L17.0448 144.578L24.7488 152.796L31.2544 149.458C34.1648 151.94 37.2464 154.166 40.4992 156.134L39.3864 163.325L49.6584 167.947L54.3664 162.469C57.9616 163.667 61.6424 164.523 65.4944 165.037L67.2064 172.056L78.5056 172.484L80.7312 165.55C84.5832 165.208 88.3496 164.609 92.0304 163.667L96.3104 169.488L106.839 165.55L106.326 158.274C109.75 156.562 113.002 154.508 116.084 152.197L122.333 155.963L130.55 148.259L127.212 141.754C129.694 138.843 131.92 135.762 133.889 132.509L141.079 133.622L145.787 123.35L140.223 118.642C141.422 115.046 142.278 111.366 142.791 107.514L149.982 105.716ZM73.9688 142.096C49.316 141.24 30.056 120.61 30.912 95.9576C31.768 71.3048 52.3976 52.0448 77.0504 52.8152C101.703 53.6712 120.963 74.3008 120.107 98.9536C119.251 123.692 98.6216 142.952 73.9688 142.096Z" fill="#EBEBEB"/>
<path d="M342.496 68.4799L345.321 65.8263L344.208 63.6007C345.064 62.5735 345.834 61.5463 346.519 60.4335L349.002 60.7759L350.628 57.2663L348.745 55.6399C349.173 54.3559 349.43 53.0719 349.686 51.7879L352.169 51.1887L352.254 47.3367L349.858 46.5663C349.772 45.2823 349.515 43.9127 349.258 42.6287L351.227 41.1735L349.858 37.4927L347.375 37.6639C346.776 36.4655 346.091 35.3527 345.321 34.3255L346.605 32.1855L343.951 29.3607L341.726 30.4735C340.698 29.6175 339.671 28.8471 338.558 28.1623L338.901 25.6799L335.391 24.0535L333.765 25.9367C332.481 25.5087 331.197 25.2519 329.913 25.0807L329.314 22.6839L325.462 22.5127L324.691 24.9095C323.407 24.9951 322.038 25.2519 320.839 25.5087L319.384 23.4543L315.703 24.8239L315.874 27.3063C314.676 27.9055 313.563 28.5903 312.536 29.3607L310.396 28.0767L307.571 30.7303L308.684 32.9559C307.828 33.9831 307.058 35.0103 306.373 36.1231L303.89 35.7807L302.264 39.2903L304.147 40.9167C303.719 42.2007 303.462 43.4847 303.206 44.7687L300.723 45.3679L300.638 49.2199L303.034 49.9903C303.12 51.2743 303.377 52.6439 303.634 53.9279L301.579 55.3831L302.949 59.0639L305.431 58.8927C306.031 60.0911 306.715 61.2039 307.486 62.2311L306.202 64.3711L308.855 67.1959L311.081 66.0831C312.108 66.9391 313.135 67.7095 314.248 68.3943L313.906 70.8767L317.415 72.5031L319.042 70.6199C320.326 71.0479 321.61 71.3047 322.894 71.4759L323.493 73.8727L327.345 74.0439L328.115 71.6471C329.399 71.5615 330.769 71.3047 331.967 71.0479L333.422 73.1023L337.103 71.7327L336.932 69.2503C338.13 68.6511 339.243 67.9663 340.27 67.1959L342.496 68.4799ZM322.209 52.1303C320.154 49.9047 320.24 46.3951 322.466 44.3407C324.691 42.2863 328.201 42.3719 330.255 44.5975C332.31 46.8231 332.224 50.3327 329.998 52.3871C327.858 54.4415 324.349 54.3559 322.209 52.1303Z" fill="#EBEBEB"/>
<path d="M238.92 183.954L230.103 177.877C229.247 174.624 228.049 171.542 226.508 168.632L228.734 159.73L215.894 145.948L206.82 147.574C203.995 145.862 200.999 144.493 197.832 143.38L192.354 134.135L173.522 133.45L167.444 142.267C164.191 143.123 161.11 144.322 158.199 145.862L149.297 143.637L135.515 156.477L137.142 165.465C135.43 168.29 134.06 171.286 132.947 174.453L123.702 179.931L123.018 198.763L131.92 204.841C132.776 208.094 133.974 211.175 135.43 214.086L133.204 222.988L146.044 236.77L155.032 235.143C157.857 236.855 160.853 238.225 164.02 239.338L169.498 248.582L188.33 249.267L194.408 240.45C197.661 239.594 200.742 238.396 203.738 236.855L212.555 239.081L226.337 226.241L224.71 217.253C226.422 214.428 227.792 211.432 228.905 208.265L238.15 202.786L238.92 183.954ZM180.284 212.545C168.557 212.117 159.483 202.358 159.826 190.717C160.254 178.99 170.012 169.916 181.654 170.258C193.381 170.686 202.454 180.445 202.112 192.086C201.77 203.814 192.011 212.973 180.284 212.545Z" fill="#EBEBEB"/>
<path d="M259.036 130.626L244.142 130.112C243.542 130.112 242.943 129.77 242.686 129.256L238.663 122.494C236.523 121.723 234.469 120.782 232.414 119.583L225.994 120.782C225.395 120.867 224.796 120.696 224.368 120.268L214.267 109.397C213.839 108.969 213.668 108.284 213.839 107.685L215.466 101.35C214.524 99.3816 213.668 97.156 212.983 94.9304L206.563 90.4792C206.05 90.1368 205.793 89.5376 205.793 88.9384L206.306 74.1296C206.306 73.5304 206.649 72.9312 207.162 72.6744L213.925 68.6512C214.695 66.4256 215.722 64.3712 216.835 62.488L215.637 56.068C215.551 55.4688 215.722 54.8696 216.15 54.4416L227.022 44.3408C227.45 43.9128 228.134 43.7416 228.734 43.9128L235.068 45.5392C237.122 44.512 239.262 43.7416 241.402 43.0568L245.854 36.6368C246.196 36.1232 246.795 35.7808 247.394 35.8664L262.203 36.38C262.802 36.38 263.402 36.7224 263.658 37.236L267.682 43.9984C269.822 44.7688 271.876 45.7104 273.845 46.9088L280.35 45.7104C280.95 45.6248 281.549 45.796 281.977 46.224L292.078 57.0952C292.506 57.5232 292.677 58.208 292.506 58.8072L290.879 65.1416C291.906 67.196 292.677 69.336 293.362 71.476L299.782 75.9272C300.295 76.2696 300.552 76.8688 300.552 77.468L300.038 92.2768C300.038 92.876 299.696 93.4752 299.182 93.732L292.42 97.7552C291.65 99.9808 290.622 102.035 289.51 103.918L290.708 110.338C290.794 110.938 290.622 111.537 290.194 111.965L279.409 122.066C278.981 122.494 278.296 122.665 277.697 122.494L271.362 120.867C269.308 121.894 267.082 122.665 264.942 123.35L260.491 129.77C260.234 130.283 259.635 130.626 259.036 130.626ZM245.34 126.517L258.18 126.945L262.46 120.782C262.717 120.439 263.059 120.182 263.487 120.097C265.884 119.498 268.195 118.556 270.506 117.443C270.849 117.272 271.362 117.186 271.79 117.272L277.782 118.813L287.198 110.082L286.086 103.918C286 103.49 286.086 103.062 286.342 102.634C287.541 100.58 288.654 98.3544 289.51 95.9576C289.681 95.5296 289.938 95.1872 290.28 94.9304L296.7 91.0784L297.128 78.2384L290.965 73.9584C290.622 73.7016 290.366 73.4448 290.28 73.0168C290.28 72.9312 290.28 72.9312 290.28 72.8456C289.595 70.4488 288.739 68.1376 287.626 65.912C287.455 65.484 287.37 65.056 287.455 64.628L288.996 58.5504L280.179 49.1344L274.016 50.2472C273.588 50.3328 273.16 50.2472 272.732 49.9904C270.592 48.7064 268.366 47.6792 266.055 46.8232C265.884 46.7376 265.798 46.7376 265.713 46.652C265.456 46.4808 265.285 46.3096 265.114 46.0528L261.262 39.6328L248.422 39.2048L244.142 45.368C243.885 45.7104 243.542 45.9672 243.114 46.1384C240.718 46.8232 238.406 47.6792 236.181 48.792C235.753 48.9632 235.325 49.0488 234.897 48.9632L228.819 47.4224L219.403 56.2392L220.516 62.4024C220.602 62.8304 220.516 63.1728 220.345 63.5152C220.345 63.6008 220.259 63.6008 220.259 63.6864C218.975 65.7408 217.948 68.052 217.092 70.4488C216.921 70.8768 216.664 71.2192 216.322 71.3904L209.902 75.2424L209.474 88.0824L215.637 92.3624C215.979 92.6192 216.236 92.9616 216.322 93.3896C217.006 95.872 217.862 98.1832 218.975 100.323C219.061 100.409 219.061 100.58 219.146 100.751C219.232 101.008 219.232 101.35 219.146 101.607L217.606 107.685L226.422 117.101L232.5 115.988C232.928 115.902 233.356 115.988 233.784 116.245C235.924 117.529 238.235 118.556 240.546 119.412C240.974 119.583 241.317 119.84 241.574 120.182L245.34 126.517ZM253.215 110.253C252.873 110.253 252.616 110.253 252.274 110.253C237.379 109.739 225.566 97.156 226.08 82.2616C226.594 67.3672 239.177 55.64 254.071 56.068C268.966 56.5816 280.778 69.1648 280.265 84.0592C280.008 91.2496 276.926 98.012 271.705 102.891C266.654 107.685 260.149 110.253 253.215 110.253ZM253.215 59.6632C240.632 59.6632 230.189 69.6784 229.761 82.3472C229.333 95.2728 239.519 106.144 252.445 106.658C258.694 106.829 264.686 104.603 269.308 100.323C273.93 96.0432 276.498 90.2224 276.755 83.9736C277.183 71.048 266.997 60.1768 254.071 59.6632C253.729 59.6632 253.472 59.6632 253.215 59.6632Z" fill="#EBEBEB"/>
<path d="M293.19 23.8824L287.113 22.256L285.401 16.0928L287.798 13.696L290.366 19.0032L295.587 21.4856L293.19 23.8824Z" fill="#E0E0E0"/>
<path d="M293.618 19.7738C294.731 18.661 294.731 16.8634 293.618 15.7506C292.506 14.6378 290.708 14.6378 289.595 15.7506L292.677 11.1282L296.786 13.1826L297.642 17.4626L293.618 19.7738Z" fill="#E0E0E0"/>
<path d="M287.37 14.2097L291.906 9.67285L298.07 11.2993L299.696 17.4625L295.159 21.9993L288.996 20.3729L287.37 14.2097ZM295.502 17.8905C296.614 16.7777 296.614 14.9801 295.502 13.8673C294.389 12.7545 292.591 12.7545 291.478 13.8673C290.366 14.9801 290.366 16.7777 291.478 17.8905C292.591 19.0033 294.389 19.0033 295.502 17.8905Z" fill="#F0F0F0"/>
<path d="M42.2112 187.721L45.5496 186.865L46.4056 183.526L45.1216 182.242L43.752 185.067L40.9272 186.437L42.2112 187.721Z" fill="#E0E0E0"/>
<path d="M42.0401 185.495C41.4409 184.896 41.4409 183.954 42.0401 183.355C42.6393 182.756 43.5809 182.756 44.1801 183.355L42.5537 180.873L40.3281 181.986L39.8145 184.297L42.0401 185.495Z" fill="#E0E0E0"/>
<path d="M45.3784 182.499L42.9816 180.102L39.7288 180.958L38.8728 184.211L41.2696 186.608L44.5224 185.752L45.3784 182.499ZM41.0128 184.468C40.4136 183.869 40.4136 182.927 41.0128 182.328C41.612 181.729 42.5536 181.729 43.1528 182.328C43.752 182.927 43.752 183.869 43.1528 184.468C42.5536 185.067 41.612 185.067 41.0128 184.468Z" fill="#F0F0F0"/>
<path d="M30.3985 7.10479L33.1377 9.844C33.8225 10.5288 35.0209 10.5288 35.7057 9.844C36.3905 9.1592 36.3905 7.9608 35.7057 7.276L32.9665 4.53679C32.2817 3.85199 31.0833 3.85199 30.3985 4.53679C29.6281 5.22159 29.6281 6.33439 30.3985 7.10479Z" fill="#F0F0F0"/>
<path d="M28.4296 0.25677C30.5696 -0.51363 32.7952 0.513575 33.5656 2.48238C34.2504 4.45117 33.1376 6.67677 30.9976 7.44717C28.8576 8.21757 26.632 7.19037 25.8616 5.22157C25.1768 3.25277 26.2896 1.02717 28.4296 0.25677Z" fill="#E0E0E0"/>
<path d="M25.4283 4.76867L25.8334 5.89648L33.9697 2.97427L33.5647 1.84646L25.4283 4.76867Z" fill="#F0F0F0"/>
<path d="M179 299.686C270.667 299.686 344.978 295.355 344.978 290.013C344.978 284.671 270.667 280.34 179 280.34C87.3327 280.34 13.0216 284.671 13.0216 290.013C13.0216 295.355 87.3327 299.686 179 299.686Z" fill="#F5F5F5"/>
<path d="M39.2152 36.9793C38.3592 33.2129 38.7016 30.0457 40.328 27.4777C41.9544 24.9097 44.608 23.1977 48.3744 22.3417C52.2264 21.4857 55.3936 21.8281 57.9616 23.4545C60.5296 25.0809 62.2416 27.7345 63.012 31.4153C63.6112 34.1545 63.6968 36.4657 63.1832 38.3489C62.6696 40.3177 61.6424 41.9441 60.1872 43.3137C58.6464 44.6833 56.6776 45.6249 54.1096 46.2241C51.5416 46.8233 49.2304 46.9089 47.3472 46.4809C45.464 46.0529 43.752 45.0257 42.2968 43.4849C40.8416 41.8585 39.8144 39.7185 39.2152 36.9793ZM46.4056 35.4385C46.9192 37.7497 47.7752 39.3761 48.888 40.1465C50.0008 41.0025 51.2848 41.1737 52.74 40.8313C54.2808 40.4889 55.308 39.7185 55.9928 38.5201C56.6776 37.3217 56.592 35.4385 55.9928 32.8705C55.4792 30.7305 54.7088 29.1897 53.596 28.4193C52.4832 27.6489 51.1992 27.3921 49.6584 27.7345C48.2032 28.0769 47.176 28.8473 46.5768 30.0457C45.892 31.3297 45.8064 33.0417 46.4056 35.4385Z" fill="#263238"/>
<path d="M66.5217 34.1545C65.9225 31.5865 66.3505 29.2753 67.6345 27.2209C69.0041 25.1665 71.1441 23.7969 74.0545 23.1121C77.3929 22.3417 80.1321 22.7697 82.2721 24.3105C83.9841 25.5945 85.0969 27.3065 85.6105 29.6177C86.2097 32.1857 85.7817 34.4969 84.4977 36.5513C83.1281 38.6057 80.9881 39.9753 77.9921 40.6601C75.3385 41.2593 72.9417 41.0881 70.9729 40.0609C68.6617 38.9481 67.1209 36.8937 66.5217 34.1545ZM72.9417 32.6993C73.2841 34.1545 73.7977 35.1817 74.5681 35.7809C75.3385 36.3801 76.1945 36.5513 77.0505 36.2945C77.9921 36.1233 78.6769 35.5241 79.1049 34.7537C79.5329 33.8977 79.6185 32.6993 79.1905 31.1585C78.8481 29.7033 78.3345 28.6761 77.5641 28.1625C76.7937 27.5633 76.0233 27.3921 75.0817 27.5633C74.1401 27.7345 73.4553 28.3337 73.0273 29.1897C72.6849 30.0457 72.5993 31.2441 72.9417 32.6993Z" fill="#263238"/>
<path d="M92.2016 43.8274L86.98 20.7154L92.972 19.3458L93.5712 21.8282C94.1704 20.6298 94.7696 19.6882 95.3688 19.1746C96.2248 18.4898 97.1664 17.9762 98.2792 17.7194C100.505 17.2058 102.474 17.6338 104.014 19.089C105.641 20.5442 106.754 22.513 107.267 24.9954C107.866 27.8202 107.695 30.0458 106.754 31.8434C105.726 33.641 104.271 34.7538 102.217 35.1818C101.19 35.4386 100.334 35.4386 99.392 35.2674C98.536 35.0962 97.68 34.7538 96.9096 34.2402L98.7072 42.201L92.2016 43.8274ZM95.2832 27.649C95.6256 28.933 96.0536 29.8746 96.824 30.3882C97.5088 30.9018 98.2792 31.073 99.1352 30.9018C99.9056 30.7306 100.419 30.3026 100.762 29.5322C101.104 28.7618 101.104 27.7346 100.847 26.1938C100.505 24.8242 100.077 23.8826 99.392 23.369C98.7072 22.8554 98.0224 22.6842 97.252 22.8554C96.396 23.0266 95.7968 23.5402 95.4544 24.3106C95.0264 25.081 94.9408 26.1938 95.2832 27.649Z" fill="#263238"/>
<path d="M110.006 28.1625L116.255 26.1081C116.683 26.7929 117.197 27.2209 117.71 27.4777C118.224 27.7345 118.909 27.7345 119.679 27.5633C120.535 27.3921 121.134 27.0497 121.562 26.5361C121.905 26.1937 121.99 25.7657 121.905 25.4233C121.819 24.9953 121.477 24.6529 120.963 24.4817C120.535 24.3961 119.594 24.3961 118.053 24.4817C115.742 24.5673 114.115 24.5673 113.174 24.4817C112.232 24.3105 111.376 23.9681 110.606 23.2833C109.835 22.5985 109.322 21.8281 109.065 20.8009C108.808 19.6881 108.894 18.6609 109.407 17.7193C109.835 16.7777 110.606 16.0073 111.633 15.3225C112.66 14.6377 114.115 14.1241 115.998 13.6961C117.967 13.2681 119.508 13.0969 120.535 13.1825C121.562 13.2681 122.418 13.5249 123.274 14.0385C124.045 14.5521 124.815 15.3225 125.414 16.2641L119.508 18.2329C119.251 17.7193 118.909 17.3769 118.481 17.2057C117.882 16.9489 117.282 16.9489 116.512 17.1201C115.827 17.2913 115.314 17.5481 115.057 17.8905C114.8 18.2329 114.714 18.5753 114.8 18.9177C114.886 19.3457 115.142 19.6025 115.656 19.6881C116.084 19.7737 117.111 19.7737 118.566 19.6025C120.792 19.3457 122.418 19.3457 123.531 19.5169C124.644 19.6881 125.586 20.1161 126.356 20.8009C127.126 21.4857 127.554 22.2561 127.811 23.2833C128.068 24.2249 127.982 25.2521 127.554 26.2793C127.212 27.3065 126.442 28.2481 125.329 29.1041C124.216 29.9601 122.59 30.5593 120.364 31.0729C117.282 31.7577 115.057 31.8433 113.516 31.2441C111.89 30.7305 110.777 29.7033 110.006 28.1625Z" fill="#263238"/>
<path d="M130.893 7.01929H137.912V12.4121L136.628 23.2833H132.262L130.893 12.4121V7.01929ZM131.235 24.9097H137.826V30.7305H131.235V24.9097Z" fill="#263238"/>
<path d="M75.1672 80.6352C75.0816 80.6352 75.0816 80.6352 74.996 80.6352C71.144 79.18 68.8328 77.7248 67.6344 75.9272C66.7784 76.0984 65.7512 76.0128 64.8952 75.5848C64.0392 75.1568 63.0976 74.3864 62.4984 73.3592C61.8992 73.7872 61.2144 73.9584 60.444 73.7016C59.588 73.4448 58.6464 72.6744 57.876 71.6472C57.3624 71.9896 56.9344 72.0752 56.5064 71.9896C53.9384 71.8184 50.5144 66.6824 50.2576 61.2896C50.2576 61.0328 50.4288 60.8616 50.6856 60.8616C50.9424 60.8616 51.1136 61.0328 51.1136 61.2896C51.3704 66.4256 54.6232 70.9624 56.592 71.1336C56.9344 71.1336 57.1912 71.048 57.3624 70.8768C56.164 68.8224 55.5648 65.912 56.5064 62.8304C57.2768 60.2624 57.876 59.2352 58.6464 59.4064C60.1016 59.7488 59.9304 65.3984 59.16 69.0792C58.9888 69.9352 58.732 70.5344 58.4752 70.9624C59.16 71.9896 59.9304 72.5888 60.6152 72.8456C61.2144 73.0168 61.728 72.8456 62.0704 72.5888C61.3856 70.9624 61.3 68.6512 62.156 65.8264C63.3544 62.06 63.868 61.9744 64.1248 61.8888C64.296 61.8032 64.5528 61.8888 64.6384 62.06C65.4088 62.916 64.4672 68.8224 63.5256 71.7328C63.3544 72.0752 63.2688 72.4176 63.012 72.76C63.5256 73.7872 64.296 74.472 65.152 74.9C65.8368 75.2424 66.5216 75.328 67.1208 75.2424C67.0352 75.0712 66.9496 74.9 66.9496 74.7288C66.2648 72.9312 66.6072 70.7912 67.9768 68.2232C68.9184 66.5112 69.6032 65.7408 70.288 65.7408C70.4592 65.7408 70.8872 65.8264 71.144 66.34C71.9144 67.7096 71.3152 72.2464 69.86 74.5576C69.5176 75.0712 69.004 75.4992 68.4904 75.756C69.6032 77.2968 71.8288 78.5808 75.2528 79.9504C75.5096 80.036 75.5952 80.2928 75.5096 80.464C75.5096 80.5496 75.3384 80.6352 75.1672 80.6352ZM70.288 66.5112C70.288 66.5112 69.7744 66.5112 68.7472 68.48C67.5488 70.7912 67.2064 72.6744 67.8056 74.3008C67.8912 74.472 67.9768 74.7288 68.0624 74.9C68.4904 74.7288 68.9184 74.3864 69.1752 73.9584C70.3736 72.1608 70.9728 68.3944 70.4592 66.8536C70.3736 66.5968 70.288 66.5112 70.288 66.5112ZM64.2104 62.916C63.9536 63.344 63.6112 64.2 63.0976 65.912C62.3272 68.2232 62.3272 70.1064 62.7552 71.476C62.7552 71.3904 62.8408 71.3048 62.8408 71.2192C63.7824 68.3944 64.296 64.2856 64.2104 62.916ZM58.5608 60.1768C58.3896 60.348 57.9616 60.8616 57.3624 62.916C56.592 65.6552 57.02 68.1376 57.9616 69.9352C58.1328 69.5928 58.304 69.1648 58.3896 68.7368C59.2456 64.628 58.9888 60.8616 58.5608 60.1768Z" fill="#263238"/>
<path d="M107.695 125.49C106.411 125.49 105.042 125.233 103.758 124.462C103.586 124.377 103.501 124.12 103.586 123.863C103.672 123.692 103.929 123.606 104.186 123.692C107.267 125.49 111.205 124.206 111.975 122.922C112.061 122.75 112.146 122.579 112.061 122.322C110.862 122.408 109.407 122.151 107.695 121.038C105.555 119.669 105.384 119.241 105.384 118.984C105.384 118.813 105.47 118.642 105.641 118.556C106.497 118.128 110.349 119.926 111.975 120.953C112.146 121.124 112.403 121.21 112.489 121.381C113.174 121.21 113.773 120.867 114.115 120.439C114.372 120.097 114.543 119.84 114.629 119.498C114.543 119.498 114.543 119.498 114.458 119.498C113.088 119.669 111.718 119.07 110.263 117.7C109.236 116.758 108.894 116.159 108.979 115.646C108.979 115.474 109.15 115.218 109.578 115.046C110.777 114.79 113.687 115.988 114.886 117.272C115.142 117.529 115.314 117.871 115.399 118.299C116.512 117.786 117.71 116.587 119.08 114.618C119.251 114.447 119.508 114.362 119.679 114.533C119.85 114.704 119.936 114.961 119.765 115.132C118.138 117.358 116.769 118.642 115.485 119.155C115.399 119.754 115.142 120.354 114.714 120.867C114.286 121.381 113.687 121.809 112.831 122.066C112.917 122.494 112.831 122.836 112.574 123.264C112.061 124.548 110.006 125.49 107.695 125.49ZM106.925 119.583C107.182 119.754 107.61 120.097 108.209 120.439C109.407 121.124 110.434 121.466 111.29 121.552C109.921 120.696 108.038 119.926 106.925 119.583ZM109.921 115.902C110.006 116.074 110.178 116.416 110.948 117.101C112.232 118.299 113.345 118.813 114.458 118.642C114.543 118.642 114.629 118.642 114.714 118.642C114.629 118.385 114.543 118.128 114.372 117.957C113.174 116.587 110.52 115.817 109.921 115.902Z" fill="#263238"/>
<path d="M118.994 124.291L105.641 126.688L93.5712 60.6047L67.8056 65.3127L25.8616 139.785L30.3984 164.352L84.1552 154.594L87.836 174.71L113.602 170.002L109.921 149.886L123.274 147.489L118.994 124.291ZM51.5416 136.532L73.7976 97.4983L79.9608 131.31L51.5416 136.532Z" fill="#4E4E4E"/>
<path d="M226.422 56.1535C225.909 51.6167 225.053 47.5079 223.683 43.9983C222.399 40.4887 220.345 36.9791 217.691 33.5551C215.038 30.1311 211.442 27.2207 206.82 24.6527C202.198 22.1703 196.206 20.3727 188.673 19.4311C173.008 17.3767 160.767 20.2015 152.036 27.7343C143.305 35.3527 137.484 49.9047 134.745 71.3903C133.632 80.1215 133.375 88.2535 133.889 95.6151C134.488 103.062 135.858 109.054 137.998 113.506C140.994 119.84 145.102 124.89 150.495 128.742C155.888 132.509 163.335 135.077 172.666 136.275C189.443 138.501 201.855 135.248 209.987 126.602C218.034 117.957 223.426 103.405 226.08 82.8607C227.364 73.7871 227.45 64.8847 226.422 56.1535Z" fill="#4E4E4E"/>
<path d="M180.541 127.544C178.486 127.458 176.261 127.287 174.035 127.03C166.16 126.003 160.168 124.034 155.974 121.124C151.865 118.299 148.869 114.533 146.558 109.653V109.568C144.931 106.144 143.818 101.179 143.39 95.0159C142.877 88.2535 143.134 80.7207 144.161 72.6743C147.242 48.9631 153.491 39.0335 158.285 34.9247C163.849 30.1311 171.296 27.9055 181.14 28.2479C183.194 28.3335 185.334 28.5047 187.474 28.7615C193.809 29.6175 198.774 30.9871 202.369 32.9559C205.793 34.8391 208.446 36.9791 210.33 39.3759C212.384 42.0295 213.925 44.6831 214.952 47.3367C215.979 50.1615 216.75 53.4999 217.178 57.2663C218.119 65.2271 218.034 73.5303 216.921 81.8335C214.524 100.237 209.987 113.249 203.31 120.353C198.26 125.575 190.813 127.886 180.541 127.544Z" fill="#263238"/>
<path d="M197.233 56.4104L197.318 53.1576L195.35 52.4728C195.264 51.36 195.093 50.2472 194.836 49.22L196.548 47.936L195.435 44.8544L193.381 45.0256C192.867 43.9984 192.268 43.1424 191.669 42.2008L192.782 40.4032L190.556 38.0064L188.673 38.948C187.817 38.2632 186.961 37.5784 186.019 36.9792L186.362 34.9248L183.366 33.5552L181.996 35.1816C180.969 34.8392 179.856 34.5824 178.743 34.4112L178.23 32.3568L174.977 32.2712L174.292 34.24C173.179 34.3256 172.066 34.4968 171.039 34.7536L169.755 33.0416L166.674 34.1544L166.845 36.2088C165.818 36.7224 164.962 37.3216 164.02 37.9208L162.222 36.808L159.826 39.0336L160.767 40.9168C160.082 41.7728 159.398 42.6288 158.884 43.5704L156.83 43.228L155.46 46.224L157.086 47.5936C156.744 48.6208 156.487 49.7336 156.316 50.8464L154.262 51.36L154.176 54.6128L156.145 55.2976C156.23 56.4104 156.402 57.5232 156.658 58.5504L154.946 59.8344L156.059 62.916L158.114 62.7448C158.627 63.772 159.226 64.628 159.826 65.5696L158.713 67.3672L160.938 69.764L162.822 68.8224C163.678 69.5072 164.534 70.192 165.475 70.7912L165.133 72.8456L168.129 74.2152L169.498 72.5888C170.526 72.9312 171.638 73.188 172.751 73.3592L173.265 75.4136L176.518 75.4992L177.202 73.5304C178.315 73.4448 179.428 73.2736 180.455 73.0168L181.739 74.7288L184.821 73.616L184.65 71.5616C185.677 71.048 186.533 70.4488 187.474 69.8496L189.272 70.9624L191.669 68.7368L190.727 66.8536C191.412 65.9976 192.097 65.1416 192.61 64.2L194.665 64.5424L196.034 61.5464L194.408 60.1768C194.75 59.1496 195.007 58.0368 195.178 56.924L197.233 56.4104ZM175.319 66.9392C168.214 66.6824 162.65 60.776 162.907 53.6712C163.164 46.5664 169.07 41.0024 176.175 41.2592C183.28 41.516 188.844 47.4224 188.587 54.5272C188.416 61.5464 182.424 67.1104 175.319 66.9392Z" fill="#848484"/>
<path opacity="0.3" d="M210.758 115.988L211.014 113.762L209.73 113.249C209.73 112.478 209.645 111.793 209.559 111.023L210.758 110.253L210.158 108.113H208.703C208.446 107.428 208.104 106.743 207.676 106.144L208.446 104.945L207.077 103.233L205.793 103.747C205.279 103.233 204.68 102.72 204.081 102.292L204.423 100.922L202.454 99.8951L201.427 100.922C200.742 100.665 200.058 100.409 199.287 100.237L199.03 98.8679L196.805 98.6111L196.291 99.8951C195.521 99.8951 194.836 99.9807 194.066 100.066L193.295 98.8679L191.155 99.4671V100.922C190.47 101.179 189.786 101.521 189.186 101.949L187.988 101.093L186.276 102.463L186.79 103.747C186.276 104.261 185.762 104.86 185.334 105.459L183.965 105.117L182.938 107.085L183.965 108.113C183.708 108.797 183.451 109.482 183.28 110.253L181.91 110.509L181.654 112.735L182.938 113.249C182.938 114.019 183.023 114.704 183.109 115.474L181.91 116.245L182.51 118.385H183.965C184.222 119.069 184.564 119.754 184.992 120.353L184.136 121.552L185.506 123.264L186.79 122.75C187.303 123.264 187.902 123.777 188.502 124.205L188.416 125.489L190.385 126.517L191.412 125.489C192.097 125.746 192.782 126.003 193.552 126.174L193.809 127.544L196.034 127.801L196.548 126.517C197.318 126.517 198.003 126.431 198.774 126.345L199.544 127.544L201.684 126.945V125.489C202.369 125.233 203.054 124.89 203.653 124.462L204.766 125.318L206.478 123.949L205.964 122.665C206.478 122.151 206.991 121.552 207.419 120.953L208.789 121.295L209.816 119.326L208.789 118.299C209.046 117.614 209.302 116.929 209.474 116.159L210.758 115.988ZM199.715 115.132C198.688 117.015 196.377 117.7 194.494 116.673C192.61 115.645 192.011 113.334 192.953 111.451C193.98 109.568 196.291 108.969 198.174 109.91C200.058 110.937 200.742 113.249 199.715 115.132Z" fill="#DE0A0A"/>
<path d="M222.913 78.9232L220.345 77.1256C220.088 76.184 219.746 75.328 219.318 74.472L220.002 71.904L216.322 67.9664L213.754 68.48C212.983 67.9664 212.042 67.624 211.186 67.2816L209.559 64.628L204.166 64.4568L202.369 67.0248C201.427 67.2816 200.571 67.624 199.715 68.052L197.147 67.3672L193.21 71.048L193.723 73.616C193.21 74.472 192.867 75.328 192.525 76.184L189.871 77.7248L189.7 83.1176L192.268 84.9152C192.525 85.8568 192.867 86.7128 193.295 87.5688L192.61 90.1368L196.291 94.0744L198.859 93.5608C199.715 94.0744 200.571 94.4168 201.427 94.7592L202.968 97.4128L208.361 97.584L210.158 95.016C211.1 94.7592 211.956 94.4168 212.812 93.9888L215.38 94.6736L219.318 90.9928L218.804 88.4248C219.318 87.5688 219.66 86.7128 220.002 85.8568L222.656 84.2304L222.913 78.9232ZM206.05 87.2264C202.711 87.1408 200.058 84.316 200.143 80.892C200.229 77.5536 203.054 74.9 206.478 74.9856C209.816 75.0712 212.47 77.896 212.384 81.32C212.213 84.6584 209.388 87.312 206.05 87.2264Z" fill="white"/>
<path d="M241.488 35.6952L241.916 34.5824C242.258 34.4112 242.515 34.24 242.772 33.9832H243.799L244.998 32.2712L244.655 31.3296C244.741 30.9872 244.826 30.6448 244.912 30.3024L245.768 29.532L245.426 27.5632L244.313 27.1352C244.142 26.7928 243.97 26.536 243.714 26.2792V25.252L242.002 24.0536L241.06 24.396C240.718 24.3104 240.375 24.2248 240.033 24.1392L239.262 23.2832L237.294 23.6256L236.866 24.7384C236.523 24.9096 236.266 25.0808 235.924 25.3376H234.897L233.698 27.0496L234.041 27.9912C233.955 28.3336 233.87 28.676 233.784 29.0184L232.928 29.7888L233.27 31.7576L234.383 32.1856C234.554 32.528 234.726 32.7848 234.982 33.1272V34.1544L236.694 35.3528L237.636 35.0104C237.978 35.096 238.321 35.1816 238.663 35.2672L239.434 36.1232L241.488 35.6952ZM237.208 30.1312C236.951 28.8472 237.807 27.7344 239.091 27.4776C240.375 27.2208 241.488 28.0768 241.745 29.3608C242.002 30.6448 241.146 31.7576 239.862 32.0144C238.578 32.2712 237.379 31.4152 237.208 30.1312Z" fill="#848484"/>
<path d="M218.033 30.0456L217.349 29.532C218.461 28.1624 220.088 26.4504 222.485 25.252L222.913 26.0224C220.345 27.3064 218.718 29.1896 218.033 30.0456Z" fill="#407BFF"/>
<path d="M224.881 25.1663L224.539 24.3959C227.792 23.0263 231.13 22.4271 234.554 22.7695L234.469 23.6255C231.216 23.2831 227.963 23.7967 224.881 25.1663Z" fill="#407BFF"/>
<path d="M223.255 31.0728L222.57 30.5592C224.368 27.9912 227.792 25.7656 231.045 25.0808L231.216 25.9368C228.134 26.536 224.882 28.676 223.255 31.0728Z" fill="#407BFF"/>
<path d="M166.417 113.506C166.331 113.506 166.16 113.42 166.074 113.334L164.277 111.451C163.335 111.366 162.479 111.194 161.623 110.938L158.798 112.136C158.627 112.222 158.542 112.222 158.37 112.136L153.662 109.054C153.577 108.969 153.491 108.798 153.491 108.712L153.577 105.63C152.978 104.946 152.464 104.175 152.036 103.319L149.639 102.378C149.468 102.292 149.382 102.206 149.382 102.035L148.27 96.5568C148.27 96.3856 148.27 96.3 148.355 96.1288L150.238 94.3312C150.324 93.3896 150.495 92.5336 150.752 91.6776L149.554 88.8528C149.468 88.6816 149.468 88.596 149.554 88.4248L152.635 83.7168C152.721 83.6312 152.806 83.5456 152.978 83.5456L156.059 83.6312C156.744 83.032 157.514 82.5184 158.37 82.0904L159.312 79.6936C159.398 79.5224 159.483 79.4368 159.654 79.4368L165.133 78.324C165.304 78.324 165.39 78.324 165.561 78.4096L167.358 80.2928C168.3 80.3784 169.156 80.5496 170.098 80.8064L172.922 79.608C173.094 79.5224 173.179 79.5224 173.35 79.608L178.058 82.6896C178.144 82.7752 178.23 82.9464 178.23 83.032L178.144 86.1136C178.743 86.7984 179.257 87.5688 179.685 88.4248L182.082 89.3664C182.253 89.452 182.338 89.5376 182.338 89.7088L183.451 95.1872C183.451 95.3584 183.451 95.444 183.366 95.6152L181.482 97.4128C181.397 98.3544 181.226 99.2104 180.969 100.066L182.167 102.891C182.253 103.062 182.253 103.148 182.167 103.319L179.086 108.027C179 108.113 178.914 108.198 178.743 108.198L175.662 108.113C174.977 108.712 174.206 109.226 173.35 109.654L172.409 112.05C172.323 112.222 172.238 112.307 172.066 112.307L166.417 113.506C166.502 113.506 166.502 113.506 166.417 113.506ZM161.623 110.082H161.709C162.65 110.338 163.592 110.51 164.534 110.595C164.619 110.595 164.705 110.681 164.79 110.766L166.502 112.564L171.553 111.537L172.494 109.226C172.494 109.14 172.58 109.054 172.666 108.969C173.522 108.541 174.378 108.027 175.062 107.342C175.148 107.257 175.234 107.257 175.319 107.257L178.315 107.342L181.14 103.062L179.942 100.323C179.942 100.238 179.856 100.152 179.942 100.066C180.198 99.1248 180.37 98.1832 180.455 97.2416C180.455 97.156 180.541 97.0704 180.541 96.9848L182.338 95.2728L181.311 90.2224L179 89.2808C178.914 89.2808 178.829 89.1952 178.743 89.1096C178.315 88.2536 177.802 87.4832 177.117 86.7128C177.031 86.6272 177.031 86.5416 177.031 86.456L177.117 83.46L172.837 80.6352L170.098 81.8336C170.012 81.8336 169.926 81.9192 169.841 81.8336C168.899 81.5768 167.958 81.4056 167.016 81.32C166.93 81.32 166.845 81.2344 166.759 81.2344L165.047 79.4368L159.997 80.464L159.055 82.7752C159.055 82.8608 158.97 82.9464 158.884 83.032C158.028 83.46 157.258 83.9736 156.487 84.6584C156.402 84.744 156.316 84.744 156.23 84.744L153.234 84.6584L150.41 88.9384L151.608 91.6776C151.694 91.7632 151.694 91.9344 151.608 92.02C151.351 92.876 151.18 93.8176 151.094 94.7592C151.094 94.8448 151.009 94.9304 151.009 95.016L149.211 96.728L150.238 101.778L152.55 102.72C152.635 102.72 152.721 102.806 152.806 102.977C153.234 103.833 153.748 104.603 154.347 105.374C154.433 105.459 154.433 105.545 154.433 105.63L154.347 108.626L158.627 111.451L161.366 110.253C161.538 110.082 161.538 110.082 161.623 110.082ZM165.818 107.342C163.678 107.342 161.452 106.743 159.569 105.459C157.001 103.747 155.289 101.179 154.69 98.1832C154.09 95.1872 154.69 92.1912 156.316 89.6232C159.826 84.4016 166.93 82.9464 172.152 86.3704C177.374 89.88 178.829 96.8992 175.319 102.206C173.179 105.545 169.498 107.342 165.818 107.342ZM157.086 90.1368C155.546 92.448 154.946 95.2728 155.546 98.0976C156.145 100.837 157.686 103.234 160.082 104.774C164.962 108.027 171.467 106.658 174.72 101.778C177.973 96.8992 176.603 90.3936 171.724 87.1408C166.845 83.888 160.254 85.2576 157.086 90.1368Z" fill="white"/>
<path d="M329.485 131.995L316.046 130.197L324.948 63.6007L299.011 60.0911L236.095 117.957L232.757 142.695L286.942 149.971L284.202 170.258L310.139 173.768L312.878 153.481L326.318 155.278L329.485 131.995ZM261.518 122.836L294.731 92.6191L290.194 126.688L261.518 122.836Z" fill="#4E4E4E"/>
<path d="M302.35 173.169C302.007 173.083 301.922 172.912 301.922 172.655L321.952 63.1727C321.952 62.9159 322.209 62.8303 322.466 62.8303C322.722 62.8303 322.894 63.0871 322.808 63.3439L302.863 172.826C302.778 173.083 302.606 173.169 302.35 173.169Z" fill="#263238"/>
<path d="M320.069 65.0559C320.069 65.4839 319.726 65.7407 319.384 65.7407C318.956 65.7407 318.699 65.3983 318.699 65.0559C318.699 64.7135 319.042 64.3711 319.384 64.3711C319.812 64.2855 320.069 64.6279 320.069 65.0559Z" fill="#263238"/>
<path d="M317.244 79.8648C317.244 80.2928 316.902 80.5496 316.559 80.5496C316.217 80.5496 315.875 80.2072 315.875 79.8648C315.875 79.5224 316.217 79.18 316.559 79.18C316.987 79.0944 317.244 79.4368 317.244 79.8648Z" fill="#263238"/>
<path d="M314.419 94.6736C314.419 95.1016 314.077 95.3584 313.734 95.3584C313.392 95.3584 313.05 95.016 313.05 94.6736C313.05 94.3312 313.392 93.9888 313.734 93.9888C314.077 93.9032 314.419 94.2456 314.419 94.6736Z" fill="#263238"/>
<path d="M308.77 110.082C308.77 110.51 308.427 110.766 308.085 110.766C307.657 110.766 307.4 110.424 307.4 110.082C307.4 109.739 307.742 109.397 308.085 109.397C308.427 109.397 308.77 109.654 308.77 110.082Z" fill="#263238"/>
<path d="M308.684 124.291C308.684 124.719 308.342 124.976 307.999 124.976C307.571 124.976 307.314 124.633 307.314 124.291C307.314 123.949 307.657 123.606 307.999 123.606C308.427 123.521 308.684 123.863 308.684 124.291Z" fill="#263238"/>
<path d="M305.859 139.1C305.859 139.528 305.517 139.785 305.174 139.785C304.832 139.785 304.49 139.442 304.49 139.1C304.49 138.672 304.832 138.415 305.174 138.415C305.517 138.415 305.859 138.672 305.859 139.1Z" fill="#263238"/>
<path d="M302.949 153.909C302.949 154.337 302.606 154.594 302.264 154.594C301.836 154.594 301.579 154.251 301.579 153.909C301.579 153.481 301.921 153.224 302.264 153.224C302.692 153.138 303.034 153.481 302.949 153.909Z" fill="#263238"/>
<path d="M300.124 168.718C300.124 169.146 299.782 169.402 299.439 169.402C299.097 169.402 298.754 169.06 298.754 168.718C298.754 168.375 299.097 168.033 299.439 168.033C299.782 168.033 300.124 168.29 300.124 168.718Z" fill="#263238"/>
<path d="M308.085 110.509C307.914 110.509 307.742 110.338 307.657 110.167C307.571 109.91 307.742 109.739 307.999 109.653L310.139 109.225C310.396 109.14 310.567 109.311 310.653 109.568C310.738 109.825 310.567 109.996 310.31 110.081L308.17 110.509H308.085Z" fill="#263238"/>
<path d="M315.19 102.549C315.19 102.549 313.306 107.513 312.622 110.595C311.937 113.591 311.937 120.353 311.937 120.353" fill="#263238"/>
<path d="M311.937 120.781C311.68 120.781 311.509 120.61 311.509 120.353C311.509 120.097 311.594 113.505 312.194 110.509C312.878 107.513 314.676 102.634 314.762 102.463C314.847 102.206 315.104 102.121 315.275 102.206C315.532 102.292 315.618 102.549 315.532 102.72C315.532 102.805 313.649 107.685 312.964 110.681C312.365 113.591 312.279 120.268 312.279 120.353C312.365 120.61 312.194 120.781 311.937 120.781Z" fill="#263238"/>
<path d="M155.46 194.654C156.658 175.48 154.433 140.641 190.47 145.263C229.076 150.228 218.034 195.425 218.034 195.425L155.46 194.654Z" fill="#263238"/>
<path d="M180.284 183.184C188.983 183.184 196.034 176.132 196.034 167.434C196.034 158.735 188.983 151.683 180.284 151.683C171.585 151.683 164.534 158.735 164.534 167.434C164.534 176.132 171.585 183.184 180.284 183.184Z" fill="white"/>
<path d="M182.339 151.769C174.891 150.485 166.931 155.963 166.16 161.527L195.692 164.266C194.665 157.846 188.245 152.71 182.339 151.769Z" fill="#263238"/>
<path d="M192.354 167.006C192.183 171.114 189.871 174.367 187.389 174.196C184.907 174.025 182.938 170.601 183.109 166.492C183.28 162.383 185.591 159.13 188.074 159.302C190.642 159.473 192.525 162.897 192.354 167.006Z" fill="#263238"/>
<path d="M180.284 184.04C171.125 184.04 163.678 176.593 163.678 167.434C163.678 158.274 171.125 150.827 180.284 150.827C189.443 150.827 196.891 158.274 196.891 167.434C196.891 176.593 189.443 184.04 180.284 184.04ZM180.284 152.539C172.067 152.539 165.39 159.216 165.39 167.434C165.39 175.651 172.067 182.328 180.284 182.328C188.502 182.328 195.179 175.651 195.179 167.434C195.179 159.216 188.502 152.539 180.284 152.539Z" fill="#DE0A0A"/>
<path opacity="0.3" d="M213.668 194.226H213.582C213.326 194.141 213.24 193.969 213.24 193.713C213.24 193.627 215.979 181.985 213.154 170.258C213.069 170.001 213.24 169.83 213.497 169.745C213.754 169.659 213.925 169.83 214.01 170.087C216.921 182.071 214.096 193.798 214.096 193.969C214.01 194.055 213.839 194.226 213.668 194.226Z" fill="white"/>
<path opacity="0.3" d="M211.271 163.838C211.1 163.838 210.929 163.753 210.843 163.582C209.731 161.185 208.361 158.959 206.82 156.99C206.649 156.819 206.735 156.562 206.906 156.391C207.077 156.22 207.334 156.306 207.505 156.477C209.131 158.446 210.587 160.757 211.699 163.239C211.785 163.496 211.699 163.667 211.528 163.838C211.357 163.753 211.357 163.838 211.271 163.838Z" fill="white"/>
<path d="M75.1672 284.62C75.0816 284.62 74.996 284.62 74.8248 284.62C72.428 284.534 70.6304 282.566 70.6304 280.254C70.716 277.858 72.5992 276.06 74.996 276.06H75.0816C77.564 276.06 83.4704 273.064 95.968 253.462C96.6528 252.434 97.7656 251.664 98.964 251.493C100.162 251.322 101.446 251.664 102.388 252.52C117.71 265.874 134.06 274.262 134.146 274.348C136.286 275.461 137.056 278.029 136.029 280.083C134.916 282.223 132.348 282.994 130.294 281.966C129.609 281.624 115.399 274.348 100.505 262.193C90.2328 277.858 82.4432 284.62 75.1672 284.62Z" fill="#263238"/>
<path d="M101.703 251.75C101.618 251.75 101.446 251.75 101.361 251.75C99.9912 251.578 98.964 250.209 99.2208 248.839C99.82 244.559 99.0496 228.638 93.6568 216.226C93.1432 215.113 93.5712 213.743 94.5984 213.058C106.326 205.098 131.321 204.07 132.348 204.07C133.718 204.07 134.916 205.098 135.002 206.553C135.087 208.008 133.974 209.121 132.519 209.206C132.262 209.206 110.434 210.062 99.2208 216.226C104.014 228.552 105.042 243.96 104.271 249.524C104.014 250.808 102.902 251.75 101.703 251.75Z" fill="#263238"/>
<path d="M105.983 248.411C104.271 244.388 96.5672 244.816 92.0304 248.325C89.6336 250.209 86.3808 255.687 86.0384 257.741C85.696 259.796 87.0656 261.593 89.4624 261.337C92.3728 261.08 96.4816 256.8 96.4816 256.8C93.828 259.453 97.252 261.337 102.474 257.485C105.298 255.345 107.866 252.948 105.983 248.411Z" fill="#848484"/>
<path d="M253.215 195.853H253.13C252.873 195.767 252.787 195.51 252.873 195.339C253.986 191.402 255.27 188.919 256.896 187.55C256.639 186.694 256.639 185.752 257.067 184.725C257.41 183.783 258.095 182.842 259.122 182.157C258.608 181.643 258.437 180.958 258.608 180.102C258.779 179.246 259.464 178.219 260.406 177.363C259.978 176.935 259.892 176.422 259.892 176.079C259.892 173.511 264.6 169.659 269.993 168.889C270.25 168.803 270.421 169.06 270.507 169.231C270.507 169.488 270.335 169.659 270.164 169.745C265.114 170.43 260.834 174.11 260.834 176.079C260.834 176.422 260.919 176.678 261.176 176.85C263.145 175.48 265.97 174.624 269.137 175.223C271.791 175.737 272.818 176.25 272.732 177.106C272.475 178.647 266.911 178.904 263.145 178.476C262.289 178.39 261.69 178.134 261.176 177.962C260.235 178.733 259.635 179.589 259.464 180.274C259.293 180.873 259.55 181.386 259.892 181.643C261.519 180.787 263.744 180.445 266.655 181.13C270.507 181.986 270.678 182.499 270.763 182.756C270.849 182.927 270.763 183.184 270.592 183.355C269.736 184.211 263.83 183.783 260.834 183.098C260.406 183.013 260.063 182.842 259.807 182.67C258.779 183.27 258.18 184.126 257.838 184.982C257.581 185.666 257.495 186.351 257.667 186.95C257.838 186.865 258.009 186.779 258.18 186.694C259.978 185.838 262.118 186.009 264.771 187.122C266.483 187.892 267.339 188.577 267.425 189.176C267.425 189.347 267.425 189.775 266.911 190.032C265.627 190.888 261.005 190.802 258.694 189.518C258.095 189.262 257.667 188.748 257.41 188.234C256.04 189.518 254.842 191.83 253.815 195.425C253.558 195.682 253.387 195.853 253.215 195.853ZM257.838 187.806C258.095 188.234 258.437 188.577 258.865 188.834C260.834 189.861 264.6 190.118 266.055 189.518C266.312 189.433 266.398 189.262 266.398 189.262C266.398 189.262 266.312 188.748 264.258 187.892C261.861 186.865 259.978 186.694 258.437 187.464C258.266 187.635 258.009 187.721 257.838 187.806ZM260.748 182.242C260.834 182.242 260.919 182.242 261.005 182.328C264.001 183.098 268.11 183.184 269.479 182.927C269.051 182.756 268.195 182.414 266.398 182.071C263.915 181.472 262.118 181.643 260.748 182.242ZM261.775 177.363C262.203 177.534 262.631 177.62 262.974 177.62C267.254 178.134 271.02 177.534 271.534 177.021C271.363 176.85 270.849 176.507 268.709 176.079C265.97 175.651 263.487 176.336 261.775 177.363Z" fill="#263238"/>
<path d="M141.764 283.165C142.363 282.994 142.106 282.48 141.507 282.48H129.951C107.866 280.169 92.4584 283.25 102.217 284.021C111.975 284.791 101.532 284.62 94.4272 287.274C87.3224 289.927 147.242 290.612 152.635 287.274C157.6 284.192 133.974 285.733 141.764 283.165Z" fill="#263238"/>
<path d="M224.796 286.589L123.959 283.25L119.765 185.495L238.834 188.149L224.796 286.589Z" fill="#4E4E4E"/>
<path d="M155.46 284.791C155.203 284.791 155.032 284.62 155.032 284.363L146.986 186.18C146.986 185.923 147.157 185.752 147.414 185.752C147.67 185.752 147.842 185.923 147.842 186.18L155.888 284.363C155.888 284.534 155.717 284.706 155.46 284.791Z" fill="#263238"/>
<path d="M224.796 286.589L251.846 282.48L260.406 191.573L238.834 188.149L224.796 286.589Z" fill="#DE0A0A"/>
<path opacity="0.2" d="M224.796 286.589L251.846 282.48L260.406 191.573L238.834 188.149L224.796 286.589Z" fill="black"/>
<path d="M132.519 264.418L130.037 206.296C129.78 200.218 134.659 195.254 140.737 195.339L216.15 197.051C222.485 197.222 227.193 202.786 226.337 209.035L217.948 267.586C217.178 272.893 212.555 276.745 207.162 276.574L142.62 274.434C137.227 274.262 132.776 269.897 132.519 264.418Z" fill="#263238"/>
<path d="M140.651 213.229L152.293 213.572L152.207 216.568L144.931 216.311L144.846 218.537L151.608 218.793L151.522 221.704L144.76 221.447L144.674 224.186L152.207 224.443L152.122 227.61L140.223 227.268L140.651 213.229Z" fill="white"/>
<path d="M154.518 227.781L154.946 213.657L162.222 213.914C163.592 213.914 164.619 214.085 165.304 214.342C165.989 214.599 166.588 215.027 167.016 215.712C167.444 216.311 167.615 217.081 167.615 218.023C167.615 218.793 167.444 219.478 167.016 219.992C166.674 220.505 166.16 221.019 165.561 221.361C165.218 221.533 164.705 221.704 164.02 221.875C164.534 222.046 164.876 222.217 165.133 222.389C165.304 222.474 165.475 222.731 165.818 223.159C166.074 223.587 166.331 223.844 166.417 224.015L168.386 228.124L163.506 227.953L161.281 223.587C161.024 222.988 160.767 222.645 160.51 222.474C160.168 222.217 159.826 222.132 159.483 222.132H159.141L158.97 227.867L154.518 227.781ZM159.141 219.478L160.938 219.564C161.11 219.564 161.538 219.478 162.137 219.393C162.394 219.307 162.65 219.221 162.822 218.965C162.993 218.708 163.078 218.451 163.164 218.194C163.164 217.766 163.078 217.424 162.736 217.167C162.479 216.91 161.88 216.739 161.11 216.739L159.226 216.653L159.141 219.478Z" fill="white"/>
<path d="M169.841 228.209L170.269 214.085L177.545 214.342C178.914 214.342 179.942 214.513 180.626 214.77C181.311 215.027 181.91 215.455 182.338 216.14C182.766 216.739 182.938 217.509 182.938 218.451C182.938 219.221 182.766 219.906 182.338 220.42C181.996 220.933 181.482 221.447 180.883 221.789C180.541 221.961 180.027 222.132 179.342 222.303C179.856 222.474 180.198 222.645 180.455 222.817C180.626 222.902 180.798 223.159 181.14 223.587C181.397 224.015 181.654 224.272 181.739 224.443L183.708 228.552L178.829 228.381L176.603 224.015C176.346 223.416 176.09 223.073 175.833 222.902C175.49 222.645 175.148 222.56 174.806 222.56H174.463L174.292 228.295L169.841 228.209ZM174.463 219.992L176.261 220.077C176.432 220.077 176.86 219.992 177.459 219.906C177.716 219.821 177.973 219.735 178.144 219.478C178.315 219.221 178.401 218.965 178.486 218.708C178.486 218.28 178.401 217.937 178.058 217.681C177.802 217.424 177.202 217.253 176.432 217.253L174.549 217.167L174.463 219.992Z" fill="white"/>
<path d="M184.393 221.704C184.478 219.393 185.163 217.595 186.447 216.397C187.731 215.198 189.614 214.599 191.84 214.685C194.151 214.77 195.949 215.455 197.233 216.739C198.431 218.023 199.03 219.821 198.945 222.046C198.859 223.673 198.602 225.042 198.003 226.07C197.404 227.097 196.548 227.867 195.521 228.466C194.494 228.98 193.124 229.237 191.583 229.237C189.957 229.151 188.673 228.894 187.646 228.381C186.618 227.867 185.762 227.011 185.163 225.898C184.65 224.7 184.393 223.33 184.393 221.704ZM188.758 221.79C188.673 223.245 188.93 224.272 189.443 224.871C189.957 225.47 190.642 225.813 191.583 225.898C192.525 225.898 193.21 225.642 193.809 225.042C194.322 224.443 194.665 223.33 194.665 221.79C194.665 220.506 194.494 219.478 193.98 218.879C193.466 218.28 192.782 217.938 191.84 217.852C190.984 217.852 190.214 218.109 189.7 218.708C189.101 219.393 188.844 220.42 188.758 221.79Z" fill="white"/>
<path d="M201.17 229.237L201.598 215.113L208.874 215.37C210.244 215.455 211.271 215.541 211.956 215.798C212.641 216.054 213.24 216.482 213.668 217.167C214.096 217.766 214.267 218.537 214.267 219.478C214.267 220.249 214.096 220.934 213.668 221.447C213.326 221.961 212.812 222.474 212.213 222.817C211.87 222.988 211.357 223.159 210.672 223.33C211.186 223.502 211.528 223.673 211.785 223.844C211.956 223.93 212.127 224.186 212.47 224.614C212.726 225.042 212.983 225.299 213.069 225.47L215.038 229.579L210.158 229.408L207.933 225.042C207.676 224.443 207.419 224.101 207.162 223.93C206.82 223.673 206.478 223.587 206.135 223.587H205.793L205.622 229.322L201.17 229.237ZM205.793 221.019L207.59 221.105C207.762 221.105 208.19 221.019 208.789 220.934C209.046 220.848 209.302 220.762 209.474 220.506C209.645 220.249 209.73 219.992 209.816 219.735C209.816 219.307 209.73 218.965 209.388 218.708C209.131 218.451 208.532 218.28 207.762 218.28L205.878 218.194L205.793 221.019Z" fill="white"/>
<path d="M208.104 253.205C207.762 253.205 207.505 253.119 207.248 252.862L199.886 244.816L192.011 252.006C191.583 252.434 190.813 252.434 190.385 251.921L183.023 243.874L175.148 251.065C174.72 251.493 173.95 251.493 173.522 250.979L166.16 242.933L158.285 250.123C158.028 250.294 157.771 250.466 157.514 250.38C157.258 250.38 156.915 250.209 156.744 250.038L149.382 241.991L141.507 249.182C141.079 249.61 140.309 249.61 139.881 249.096C139.453 248.668 139.453 247.898 139.966 247.47L148.698 239.509C149.126 239.081 149.896 239.081 150.324 239.594L157.686 247.641L165.561 240.45C165.818 240.279 166.074 240.108 166.331 240.194C166.588 240.194 166.93 240.365 167.102 240.536L174.463 248.582L182.338 241.392C182.766 240.964 183.537 240.964 183.965 241.478L191.326 249.524L199.202 242.334C199.63 241.906 200.4 241.906 200.828 242.419L208.96 251.322C209.388 251.75 209.388 252.52 208.874 252.948C208.618 253.034 208.361 253.205 208.104 253.205Z" fill="white"/>
<path d="M72.6848 288.729L67.292 286.161L62.4984 262.878L65.0664 260.053L72.6848 288.729Z" fill="#848484"/>
<path d="M72.6848 288.729L79.7896 284.534L73.6264 265.36L65.0664 260.053L72.6848 288.729Z" fill="#DE0A0A"/>
<path opacity="0.2" d="M72.6848 288.729L79.7896 284.534L73.6264 265.36L65.0664 260.053L72.6848 288.729Z" fill="black"/>
<path d="M189.186 292.923C189.015 292.923 188.758 292.923 188.587 292.923C186.19 292.837 184.393 290.869 184.393 288.557C184.478 286.161 186.447 284.363 188.758 284.363C195.35 284.62 209.302 280.511 217.263 272.807C217.777 272.293 218.376 271.951 218.975 271.78C232.5 267.757 237.55 275.889 237.722 276.231L230.36 280.597C230.36 280.597 230.36 280.682 230.446 280.768C230.36 280.682 228.477 278.2 222.314 279.741C212.555 288.814 197.147 292.923 189.186 292.923Z" fill="#263238"/>
<path d="M188.758 298.658L173.179 297.631L171.895 268.87L192.867 269.64L188.758 298.658Z" fill="#4E4E4E"/>
<path d="M188.759 298.659L192.439 294.978L194.665 277.087L192.867 269.64L188.759 298.659Z" fill="#DE0A0A"/>
<path opacity="0.2" d="M188.759 298.659L192.439 294.978L194.665 277.087L192.867 269.64L188.759 298.659Z" fill="black"/>
<path d="M279.066 287.701C278.553 287.701 277.954 287.53 277.526 287.188C268.623 280.425 256.639 268.441 252.017 256.8C251.931 256.629 251.931 256.457 251.846 256.286C249.62 242.933 247.48 214.77 247.394 213.572C247.309 212.117 248.336 210.918 249.791 210.833C251.161 210.747 252.445 211.774 252.53 213.229C252.53 213.486 254.756 241.991 256.896 255.259C261.518 266.558 274.016 278.114 280.693 283.165C281.806 284.021 282.062 285.647 281.206 286.76C280.607 287.359 279.837 287.701 279.066 287.701Z" fill="#263238"/>
<path d="M290.965 289.071C288.996 289.071 286.77 288.13 284.288 286.418C283.175 285.562 282.918 284.021 283.689 282.822C284.545 281.709 286.085 281.453 287.284 282.223C289.424 283.764 290.537 283.935 290.965 283.935C292.42 283.935 293.533 285.048 293.533 286.503C293.533 287.873 292.334 289.071 290.965 289.071Z" fill="#263238"/>
<path d="M284.973 286.246C287.712 278.114 299.011 279.655 302.863 280.939C306.715 282.137 310.225 283.678 312.365 285.048C314.505 286.417 314.505 288.729 311.68 290.013C308.256 291.639 299.525 290.184 299.525 290.184C303.976 292.153 299.525 295.32 291.65 292.238C289.082 291.211 284.031 289.242 284.973 286.246Z" fill="#848484"/>
<path d="M257.666 217.081C256.639 224.015 250.904 229.151 246.196 228.466C241.488 227.781 241.317 221.618 242.344 214.685C243.371 207.751 245.169 202.701 249.877 203.385C254.585 204.07 258.694 210.148 257.666 217.081Z" fill="#263238"/>
<path d="M144.674 189.433C145.052 189.433 145.359 189.126 145.359 188.748C145.359 188.37 145.052 188.063 144.674 188.063C144.296 188.063 143.99 188.37 143.99 188.748C143.99 189.126 144.296 189.433 144.674 189.433Z" fill="#263238"/>
<path d="M151.779 193.798C151.779 194.226 151.437 194.483 151.094 194.483C150.752 194.483 150.41 194.141 150.41 193.798C150.41 193.37 150.752 193.114 151.094 193.114C151.437 193.114 151.779 193.37 151.779 193.798Z" fill="#263238"/>
<path d="M152.55 276.745C152.55 277.173 152.207 277.429 151.865 277.429C151.437 277.429 151.18 277.087 151.18 276.745C151.18 276.317 151.522 276.06 151.865 276.06C152.293 276.06 152.55 276.317 152.55 276.745Z" fill="#263238"/>
<path d="M158.97 281.795C158.97 282.223 158.627 282.48 158.285 282.48C157.857 282.48 157.6 282.138 157.6 281.795C157.6 281.367 157.943 281.11 158.285 281.11C158.713 281.11 158.97 281.367 158.97 281.795Z" fill="#263238"/>
<path d="M35.62 290.184C33.5656 290.184 30.8263 288.986 29.3711 286.846C29.1999 286.674 29.2856 286.418 29.4568 286.246C29.628 286.075 29.8848 286.161 30.056 286.332C31.6824 288.643 35.192 289.842 36.7328 289.157C36.904 289.071 36.9896 288.986 37.1608 288.9C35.7912 288.215 34.5072 287.017 34.1648 285.048C33.9936 283.935 33.8224 282.48 34.6784 282.309C35.8768 282.052 37.5032 284.962 38.1024 287.274C38.188 287.702 38.2736 288.044 38.188 288.386C38.7016 288.558 39.3008 288.558 39.7288 288.472C40.0712 288.386 40.5847 288.301 40.9271 287.873C39.8999 287.188 39.2152 285.904 38.9584 284.278C38.616 281.966 38.8728 281.538 39.1296 281.367C39.3008 281.196 39.472 281.196 39.7288 281.282C40.6704 281.71 41.7832 284.962 41.9544 286.846C41.9544 287.017 41.9544 287.274 41.9544 287.445C42.2968 287.616 42.7247 287.702 43.0671 287.702C43.8375 287.702 44.5224 287.53 45.1215 287.188C45.0359 287.102 44.8647 287.017 44.7791 286.931C43.9231 286.161 43.4952 284.962 43.6664 283.25C43.752 281.881 44.0944 281.196 44.608 280.939C44.7792 280.854 45.2071 280.768 45.6351 281.11C46.5767 281.881 47.4328 284.192 47.0904 285.904C47.0048 286.246 46.8336 286.589 46.6624 286.931C48.2032 287.188 50.4288 286.76 52.312 286.332C52.5688 286.246 52.74 286.418 52.8256 286.674C52.9111 286.931 52.7399 287.102 52.4831 287.188C50.1719 287.787 47.6896 288.215 45.892 287.702C45.1216 288.301 44.0088 288.729 42.896 288.729C42.3824 288.729 41.9544 288.643 41.5264 288.472C41.184 289.071 40.5848 289.414 39.7288 289.585C39.1296 289.67 38.5304 289.585 37.8456 289.414C37.6744 289.756 37.332 290.013 36.9896 290.184C36.6472 290.098 36.2192 290.184 35.62 290.184ZM34.8496 283.079C34.764 283.25 34.6783 283.678 34.9351 284.791C35.1919 286.332 36.2192 287.445 37.332 287.958C37.332 287.787 37.332 287.616 37.2464 287.359C36.6472 284.962 35.3632 283.336 34.8496 283.079ZM39.6431 282.394C39.6431 282.737 39.6432 283.25 39.8144 284.192C39.9856 285.39 40.4136 286.332 41.0984 286.931C40.9272 285.134 40.1567 283.165 39.6431 282.394ZM45.036 281.624C45.036 281.624 44.6936 281.795 44.608 283.25C44.5224 284.706 44.7792 285.647 45.3784 286.246C45.5496 286.418 45.7208 286.503 45.892 286.589C46.1488 286.332 46.32 285.99 46.32 285.733C46.5768 284.534 45.9776 282.651 45.2928 281.966C45.2072 281.624 45.036 281.624 45.036 281.624Z" fill="#263238"/>
<path d="M160.938 296.689L163.249 292.666L160.938 288.643H158.456L159.825 292.666L158.456 296.689H160.938Z" fill="#263238"/>
<path d="M158.627 294.721C157.514 294.721 156.573 293.779 156.573 292.581C156.573 291.468 157.514 290.526 158.627 290.526L154.69 289.756L153.662 292.923L155.46 295.577L158.627 294.721Z" fill="#263238"/>
<path d="M158.969 288.643H154.347L152.036 292.666L154.347 296.689H158.969L161.281 292.666L158.969 288.643ZM156.573 294.721C155.46 294.721 154.518 293.779 154.518 292.581C154.518 291.468 155.46 290.526 156.573 290.526C157.771 290.526 158.627 291.468 158.627 292.581C158.713 293.779 157.771 294.721 156.573 294.721Z" fill="#848484"/>
<path d="M322.722 288.386L321.01 285.39L322.722 282.394H324.52L323.493 285.39L324.52 288.386H322.722Z" fill="#407BFF"/>
<path d="M324.434 286.931C325.29 286.931 325.975 286.246 325.975 285.39C325.975 284.534 325.29 283.849 324.434 283.849L327.345 283.25L328.115 285.647L326.831 287.616L324.434 286.931Z" fill="#407BFF"/>
<path d="M324.178 282.394H327.602L329.314 285.39L327.602 288.386H324.178L322.466 285.39L324.178 282.394ZM325.89 286.931C326.746 286.931 327.43 286.246 327.43 285.39C327.43 284.534 326.746 283.849 325.89 283.849C325.034 283.849 324.349 284.534 324.349 285.39C324.349 286.246 325.034 286.931 325.89 286.931Z" fill="#263238"/>
<path d="M258.522 292.324H262.374C263.402 292.324 264.172 291.468 264.172 290.526C264.172 289.499 263.316 288.729 262.374 288.729H258.522C257.495 288.729 256.725 289.585 256.725 290.526C256.725 291.468 257.581 292.324 258.522 292.324Z" fill="#263238"/>
<path d="M252.359 288.9C253.301 286.845 255.612 285.989 257.495 286.845C259.378 287.701 260.149 290.098 259.207 292.153C258.266 294.207 255.954 295.063 254.071 294.207C252.188 293.265 251.418 290.869 252.359 288.9Z" fill="#848484"/>
<path d="M253.421 294.125L254.505 294.636L258.192 286.816L257.109 286.305L253.421 294.125Z" fill="#263238"/>
</svg>
