<svg width="22" height="22" viewBox="0 0 22 22" fill="none" xmlns="http://www.w3.org/2000/svg">
<g clip-path="url(#clip0_299_5468)">
<path d="M7.61536 3.38464H21.1538M7.61536 10.577H15.7384M7.61536 17.7693H21.1538" stroke="#0787A4" stroke-width="3" stroke-linecap="round" stroke-linejoin="round"/>
<path d="M2.5385 5.24617C2.98733 5.24617 3.41777 5.05896 3.73514 4.72572C4.05251 4.39248 4.23081 3.94051 4.23081 3.46924C4.23081 2.99798 4.05251 2.54601 3.73514 2.21277C3.41777 1.87953 2.98733 1.69232 2.5385 1.69232C2.08967 1.69232 1.65923 1.87953 1.34186 2.21277C1.02449 2.54601 0.846191 2.99798 0.846191 3.46924C0.846191 3.94051 1.02449 4.39248 1.34186 4.72572C1.65923 5.05896 2.08967 5.24617 2.5385 5.24617ZM2.5385 12.3539C2.98733 12.3539 3.41777 12.1666 3.73514 11.8334C4.05251 11.5002 4.23081 11.0482 4.23081 10.5769C4.23081 10.1057 4.05251 9.6537 3.73514 9.32046C3.41777 8.98723 2.98733 8.80001 2.5385 8.80001C2.08967 8.80001 1.65923 8.98723 1.34186 9.32046C1.02449 9.6537 0.846191 10.1057 0.846191 10.5769C0.846191 11.0482 1.02449 11.5002 1.34186 11.8334C1.65923 12.1666 2.08967 12.3539 2.5385 12.3539ZM2.5385 19.4616C2.98733 19.4616 3.41777 19.2743 3.73514 18.9411C4.05251 18.6079 4.23081 18.1559 4.23081 17.6846C4.23081 17.2134 4.05251 16.7614 3.73514 16.4282C3.41777 16.0949 2.98733 15.9077 2.5385 15.9077C2.08967 15.9077 1.65923 16.0949 1.34186 16.4282C1.02449 16.7614 0.846191 17.2134 0.846191 17.6846C0.846191 18.1559 1.02449 18.6079 1.34186 18.9411C1.65923 19.2743 2.08967 19.4616 2.5385 19.4616Z" fill="#0787A4"/>
</g>
<defs>
<clipPath id="clip0_299_5468">
<rect width="22" height="22" fill="white"/>
</clipPath>
</defs>
</svg>
