<svg width="30" height="28" viewBox="0 0 30 28" fill="none" xmlns="http://www.w3.org/2000/svg">
<path d="M15.2407 0.870244C15.2679 0.870244 15.3007 0.869307 15.3335 0.869307C18.3795 0.869307 20.9998 2.68806 22.1688 5.29899L22.1876 5.34681C22.4998 6.45306 22.6788 7.72243 22.6788 9.03493C22.6788 9.73712 22.6273 10.4271 22.5279 11.1021L22.5373 11.0252L22.5335 11.0956C22.5195 11.3065 22.5082 11.4996 22.4988 11.6927C22.6226 11.7602 22.7698 11.7996 22.9263 11.7996C22.9413 11.7996 22.9563 11.7996 22.9713 11.7987H22.9695C23.4176 11.7565 23.8282 11.6309 24.1976 11.4377L24.1798 11.4462C24.3317 11.3693 24.5098 11.3243 24.6992 11.3243C24.7076 11.3243 24.716 11.3243 24.7245 11.3243C24.732 11.3243 24.7395 11.3243 24.7479 11.3243C24.9532 11.3243 25.1501 11.3627 25.331 11.434L25.3198 11.4302C25.7848 11.5399 26.1335 11.929 26.1795 12.4071V12.4118C26.197 12.9381 25.7232 13.3943 24.7582 13.7806C24.6542 13.8143 24.5135 13.8687 24.3551 13.9202C23.8282 14.0787 23.021 14.3421 22.7932 14.869C22.7595 14.9759 22.7407 15.0977 22.7407 15.2252C22.7407 15.4709 22.8129 15.6996 22.9367 15.8909L22.9338 15.8862L22.9517 15.904C23.9988 18.2412 26.0323 19.9765 28.5073 20.5943L28.5645 20.6065C28.8448 20.6524 29.0567 20.8934 29.0567 21.184C29.0567 21.1906 29.0567 21.1971 29.0567 21.2037C29.0557 21.2993 29.037 21.3884 29.0023 21.4709L29.0042 21.4662C28.7229 22.1327 27.5126 22.624 25.3188 22.9549C25.2373 23.1462 25.1707 23.3712 25.1295 23.6037L25.1267 23.6224C25.0835 23.8737 25.0292 24.0921 24.9607 24.304L24.9701 24.2702C24.9054 24.5449 24.6617 24.7465 24.372 24.7465C24.3542 24.7465 24.3354 24.7456 24.3176 24.7437H24.3195H24.2848C24.0542 24.7315 23.8385 24.7006 23.6295 24.6518L23.6548 24.6565C23.2076 24.5562 22.6948 24.4981 22.1679 24.4981C22.166 24.4981 22.1651 24.4981 22.1632 24.4981C22.1407 24.4981 22.1135 24.4971 22.0863 24.4971C21.7357 24.4971 21.3926 24.529 21.0588 24.5899L21.0935 24.5843C20.3154 24.7924 19.6395 25.1496 19.0667 25.6268L19.0751 25.6202C18.0363 26.5052 16.6976 27.0649 15.2295 27.1287H15.2163C15.146 27.1287 15.0767 27.1109 15.0054 27.1109H14.831C13.3545 27.0546 12.0185 26.4931 10.9817 25.5949L10.9892 25.6015C10.4304 25.1318 9.7601 24.7746 9.02604 24.574L8.98947 24.5656C8.6651 24.514 8.28916 24.4821 7.90572 24.4793H7.90197C7.36947 24.4868 6.85666 24.5506 6.3626 24.6631L6.41229 24.6537C6.22572 24.6996 6.00916 24.7306 5.78697 24.7399H5.78041C5.76541 24.7409 5.74854 24.7418 5.73166 24.7418C5.42697 24.7418 5.17197 24.5337 5.09885 24.2524L5.09791 24.2477C5.02666 24.0227 4.99291 23.7921 4.93947 23.5831C4.89541 23.3309 4.82791 23.1068 4.73697 22.8949L4.74447 22.9156C2.49729 22.6559 1.28885 22.1637 1.00854 21.4793C0.971973 21.4024 0.948535 21.3124 0.943848 21.2177V21.2159C0.943848 21.2093 0.943848 21.2018 0.943848 21.1943C0.943848 20.9046 1.15572 20.6646 1.43322 20.6206H1.43697C3.97104 19.9887 6.00541 18.2515 7.02916 15.9631L7.04979 15.9106L7.06854 15.8768C7.19322 15.694 7.26728 15.4681 7.26728 15.2252C7.26728 15.094 7.24572 14.9684 7.20635 14.8502L7.20916 14.8587C6.98041 14.3506 6.17322 14.0881 5.64822 13.9109C5.49072 13.8706 5.35572 13.8227 5.22635 13.7646L5.24322 13.7712C3.94666 13.2612 3.77041 12.6818 3.84072 12.2796C4.03479 11.7331 4.54666 11.3496 5.14854 11.3496C5.1701 11.3496 5.19072 11.3506 5.21229 11.3515H5.20947C5.21041 11.3515 5.21041 11.3515 5.21229 11.3515C5.3726 11.3515 5.52635 11.3834 5.66604 11.4415L5.65854 11.4387C6.03447 11.6365 6.4751 11.7631 6.94385 11.7893H6.95229C6.96354 11.7893 6.97572 11.7902 6.98885 11.7902C7.17447 11.7902 7.34978 11.7443 7.50353 11.6637L7.49791 11.6665L7.44447 10.9999C7.35729 10.4112 7.30666 9.73056 7.30666 9.03868C7.30666 7.72056 7.48853 6.44368 7.82697 5.23431L7.80354 5.33368C8.96322 2.69462 11.5545 0.884307 14.5685 0.884307C14.6098 0.884307 14.651 0.884307 14.6913 0.885244H14.6848L15.176 0.867432H15.2463L15.2407 0.870244Z" fill="#0787A4"/>
</svg>
