<svg width="25" height="25" viewBox="0 0 25 25" fill="none" xmlns="http://www.w3.org/2000/svg">
<path d="M25 23.5271L18.4771 17.0042C20.1715 14.9319 21.0046 12.2876 20.804 9.61831C20.6035 6.94901 19.3846 4.4589 17.3996 2.66306C15.4146 0.867215 12.8152 -0.0969702 10.1392 -0.0300621C7.46324 0.0368461 4.91533 1.12973 3.02253 3.02253C1.12973 4.91533 0.0368461 7.46324 -0.0300621 10.1392C-0.0969702 12.8152 0.867215 15.4146 2.66306 17.3996C4.4589 19.3846 6.94901 20.6035 9.61831 20.804C12.2876 21.0046 14.9319 20.1715 17.0042 18.4771L23.5271 25L25 23.5271ZM10.4167 18.75C8.76851 18.75 7.15734 18.2613 5.78693 17.3456C4.41652 16.4299 3.34842 15.1284 2.71769 13.6057C2.08696 12.083 1.92193 10.4074 2.24347 8.79093C2.56502 7.17442 3.35869 5.68956 4.52413 4.52413C5.68956 3.35869 7.17442 2.56502 8.79093 2.24347C10.4074 1.92193 12.083 2.08696 13.6057 2.71769C15.1284 3.34842 16.4299 4.41652 17.3456 5.78693C18.2613 7.15734 18.75 8.76851 18.75 10.4167C18.7475 12.6261 17.8688 14.7442 16.3065 16.3065C14.7442 17.8688 12.6261 18.7475 10.4167 18.75Z" fill="white"/>
</svg>
